<svg version="1.1" id="Layer_1" xmlns="http://www.w3.org/2000/svg" xmlns:xlink="http://www.w3.org/1999/xlink" x="0px" y="0px"
	 width="100%" viewBox="0 0 389 871" enable-background="new 0 0 389 871" xml:space="preserve">
<path fill="#212529" opacity="1.000000" stroke="none" 
	d="
M390.000000,316.000000 
	C390.000000,501.666656 390.000000,686.833313 390.000000,872.000000 
	C260.333344,872.000000 130.666672,872.000000 1.000000,872.000000 
	C1.000000,581.666687 1.000000,291.333344 1.000000,1.000000 
	C130.666672,1.000000 260.333344,1.000000 390.000000,1.000000 
	C390.000000,105.833336 390.000000,210.666672 390.000000,316.000000 
M354.980194,497.170013 
	C355.001007,495.484772 355.021790,493.799530 355.778351,491.741852 
	C356.185425,490.556915 356.830658,489.397339 356.960175,488.182800 
	C357.704132,481.206635 358.421204,474.224792 358.966034,467.230774 
	C359.727570,457.454865 360.308228,447.665039 361.005676,437.883942 
	C361.794678,426.818329 362.602814,415.753967 363.449768,404.692627 
	C363.990326,397.632721 364.523743,390.570068 365.228180,383.525452 
	C366.056641,375.240204 367.654266,366.988220 367.867859,358.694763 
	C368.238464,344.304474 369.555695,330.073456 371.902069,315.876343 
	C373.105560,308.594238 373.432159,301.157867 373.969757,293.777710 
	C374.489441,286.643799 374.099518,279.593109 375.644714,272.352264 
	C377.480621,263.749146 376.550842,254.574203 377.030609,245.658386 
	C377.569336,235.646271 378.340698,225.646622 379.025238,215.642548 
	C379.058563,215.155579 379.267151,214.682983 379.332062,214.195435 
	C380.118805,208.286514 380.893860,202.376053 381.752228,195.856262 
	C257.732086,195.856262 134.998398,195.856262 11.381866,195.856262 
	C12.102182,200.687775 12.760570,204.679581 13.281295,208.689255 
	C14.225271,215.958023 15.245039,223.222504 15.935465,230.516953 
	C16.529604,236.794144 16.663765,243.114044 17.146368,249.403931 
	C17.191416,249.991043 18.280760,250.498016 18.986462,251.831436 
	C19.046530,252.887741 19.106598,253.944061 19.020044,255.883636 
	C19.641760,259.269806 20.263477,262.656006 20.986452,266.831421 
	C21.046524,267.887726 21.106596,268.944031 21.020069,270.885437 
	C21.641558,274.576416 22.263046,278.267426 22.248259,282.379089 
	C22.530815,286.318573 22.606554,290.286255 23.138294,294.191803 
	C24.302856,302.745392 25.768839,311.257599 26.976679,319.805786 
	C27.863369,326.081085 28.508532,332.390198 29.310555,338.677917 
	C30.177206,345.472351 31.237747,352.244934 31.963938,359.053680 
	C32.792576,366.822968 33.344608,374.621765 34.021904,382.407288 
	C34.050346,382.734253 34.125454,383.057587 34.186371,383.381195 
	C35.456882,390.129517 37.052616,396.836487 37.915901,403.636444 
	C38.940922,411.710449 39.336330,419.864380 40.002842,427.983826 
	C40.030056,428.315308 39.926888,428.712067 40.073761,428.971100 
	C43.543606,435.090973 41.632301,442.014557 42.923058,448.509399 
	C44.491497,456.401520 44.316032,464.623230 45.367939,472.640320 
	C46.205132,479.020935 47.952637,485.277344 48.938164,491.644318 
	C50.451996,501.424469 51.667686,511.250977 52.993427,521.060059 
	C54.311249,530.810486 55.808895,540.542419 56.847530,550.322876 
	C57.587254,557.288574 57.460594,564.344360 58.142097,571.318726 
	C59.252316,582.680481 60.706566,594.008606 62.017689,605.350647 
	C62.055519,605.677795 62.110229,606.003418 62.167400,606.327881 
	C63.444054,613.575073 64.930054,620.793152 65.939964,628.077209 
	C66.898521,634.990967 67.358330,641.973816 68.042641,648.925781 
	C68.058533,649.087219 68.152573,649.239380 68.182785,649.401001 
	C69.456963,656.217102 71.047943,662.993286 71.916382,669.860840 
	C72.941765,677.969543 73.338943,686.157471 74.021584,694.309998 
	C74.062439,694.797913 74.250183,695.271851 74.317841,695.759460 
	C75.882889,707.040039 77.539169,718.309082 78.965843,729.607239 
	C79.938095,737.306641 80.587448,745.046936 81.404907,752.999695 
	C82.583275,752.999695 83.563812,752.999695 84.544350,752.999695 
	C166.038116,752.999756 247.531876,752.999878 329.025635,752.999817 
	C329.692230,752.999817 330.553101,753.259460 330.984497,752.940186 
	C331.849731,752.299927 333.042206,751.389771 333.116150,750.508545 
	C333.574707,745.040710 333.507721,739.523071 334.090546,734.072754 
	C335.228119,723.433838 336.804138,712.841980 337.955017,702.204285 
	C338.723846,695.097839 337.626373,688.025879 339.668457,680.758484 
	C341.648315,673.712585 339.557556,665.974243 341.705414,658.409180 
	C343.571716,651.835632 341.621948,644.624878 343.697754,637.545898 
	C345.619904,630.990784 344.287354,623.784912 345.597992,616.701477 
	C347.740326,605.122925 347.342255,593.072998 347.996063,581.220825 
	C348.359619,574.630066 348.499084,568.021301 349.062622,561.448303 
	C350.263397,547.442505 351.619049,533.448975 353.046326,519.464172 
	C353.337463,516.611816 354.222229,513.820007 354.980347,510.083862 
	C354.931335,506.056030 354.882355,502.028168 354.980194,497.170013 
M191.980804,74.299080 
	C192.324112,73.477165 192.667419,72.655251 193.531219,71.910210 
	C193.631927,71.613022 193.732635,71.315834 193.980804,70.299080 
	C194.324112,69.477165 194.667419,68.655251 195.531204,67.910210 
	C195.631912,67.613014 195.732620,67.315826 195.984695,66.386528 
	C196.337372,65.629028 196.690048,64.871529 197.556274,63.924942 
	C197.385025,63.578529 197.213760,63.232121 197.265549,62.219475 
	C201.513931,53.757427 205.762314,45.295380 210.531189,36.910217 
	C210.631912,36.613056 210.732635,36.315895 210.988403,35.287296 
	C212.030090,32.872650 213.071777,30.458004 214.670181,27.822683 
	C214.483032,27.199266 214.295883,26.575850 214.014450,25.316874 
	C214.048721,24.891243 214.083008,24.465614 214.739899,23.739641 
	C214.945953,22.868158 215.512222,21.338320 215.303833,21.224302 
	C212.347733,19.606871 209.299042,18.153881 206.224945,16.766998 
	C206.003708,16.667185 205.239716,17.302116 205.019226,17.741518 
	C202.885406,21.994156 200.816849,26.279509 198.724121,30.552805 
	C191.914383,44.457977 185.086670,58.354385 178.299316,72.270477 
	C175.810593,77.373116 173.270020,82.458221 171.009628,87.662743 
	C167.138474,96.576065 163.473862,105.579041 159.713913,114.540764 
	C156.148209,123.039566 152.604889,131.547989 148.987915,140.024963 
	C146.545486,145.749207 143.197449,151.243362 141.826569,157.202103 
	C141.148224,160.150665 135.765869,163.418503 140.989380,167.702454 
	C141.048477,168.138550 141.107559,168.574631 141.089798,169.531235 
	C141.386993,169.631927 141.684174,169.732635 142.866028,169.981064 
	C145.476517,170.686417 148.087006,171.391754 150.164932,171.953186 
	C151.935822,167.196884 153.490128,162.661652 155.304413,158.232910 
	C158.110306,151.383698 161.254089,144.670120 163.956177,137.781967 
	C166.567245,131.125916 168.425354,124.157333 171.288391,117.621346 
	C175.551544,107.889130 180.407196,98.416451 185.531204,88.910210 
	C185.631912,88.613014 185.732620,88.315826 185.981018,87.255898 
	C187.657578,83.448380 189.334152,79.640854 191.531204,75.910210 
	C191.631912,75.613014 191.732620,75.315826 191.980804,74.299080 
M225.981140,88.248260 
	C226.931870,84.832306 227.882614,81.416344 228.980179,77.181328 
	C229.199951,73.094772 225.941360,73.040459 223.283600,71.907822 
	C220.254654,70.616982 219.064316,72.217209 218.049042,74.374886 
	C215.410522,79.982445 212.880554,85.641045 210.301727,91.276741 
	C206.512741,99.557083 202.759964,107.854340 198.914215,116.108261 
	C195.829483,122.728859 192.622253,129.292297 189.482315,135.887268 
	C184.704575,145.922165 179.937988,155.962387 175.020447,166.773376 
	C175.444778,171.300186 179.648438,172.779297 182.221848,175.558426 
	C182.487274,175.845078 183.683731,175.518570 184.298111,175.193207 
	C188.671036,172.877258 193.320694,170.920090 197.282700,168.027512 
	C204.581482,162.698853 211.506363,156.852585 218.512314,151.130493 
	C222.117615,148.185867 225.508972,144.978683 229.126953,142.050720 
	C229.792999,141.511703 231.500046,141.289780 231.980530,141.732040 
	C232.603531,142.305496 232.966675,143.923828 232.600769,144.691605 
	C228.753067,152.765686 224.797119,160.790146 220.740555,168.761902 
	C218.969498,172.242340 219.862320,174.838974 223.501160,176.225464 
	C225.558517,177.009384 227.525940,178.029358 229.740341,179.036942 
	C233.580566,171.145157 237.437775,163.392471 241.139389,155.566177 
	C245.476593,146.396042 249.736328,137.188110 253.921585,127.947632 
	C257.680450,119.648544 261.256134,111.266617 264.983917,102.953217 
	C267.230072,97.944031 269.159973,92.715553 272.031647,88.081116 
	C277.345795,79.504860 277.044403,77.399124 268.282684,73.049446 
	C267.428070,72.625175 266.518616,72.311348 265.811066,72.019135 
	C248.866150,102.304337 225.959366,127.132828 198.223434,149.976486 
	C198.556442,147.166489 198.410812,145.646011 198.939117,144.414673 
	C201.187576,139.174240 203.635590,134.019424 206.531235,128.910202 
	C206.631943,128.613007 206.732651,128.315826 206.980804,127.299080 
	C207.324112,126.477165 207.667419,125.655251 208.531189,124.910210 
	C208.631912,124.613014 208.732620,124.315826 208.980804,123.299080 
	C209.324097,122.477165 209.667404,121.655251 210.531204,120.910210 
	C210.631927,120.613022 210.732635,120.315834 210.981018,119.251923 
	C211.444092,117.896896 211.765991,116.472397 212.393082,115.198082 
	C216.562485,106.725220 220.797226,98.284508 225.531204,89.910210 
	C225.631927,89.613022 225.732635,89.315834 225.981140,88.248260 
M317.072601,98.622833 
	C315.109711,100.309654 313.146851,101.996475 311.183990,103.683289 
	C310.798065,103.362282 310.412170,103.041275 310.026245,102.720268 
	C310.105957,101.267143 309.723694,99.571854 310.338409,98.399147 
	C315.313599,88.908089 320.231354,79.372078 325.639832,70.126595 
	C333.298340,57.034870 341.444031,44.228615 349.159760,31.169390 
	C350.296631,29.245182 351.393829,25.546736 350.459656,24.501898 
	C348.290070,22.075397 344.896881,20.715969 341.914093,19.080061 
	C341.569183,18.890892 340.413727,19.524094 340.092255,20.054007 
	C337.989349,23.520397 336.006378,27.059782 333.995819,30.581944 
	C327.827728,41.387508 321.571259,52.144131 315.536682,63.023785 
	C312.156525,69.117790 309.191162,75.440498 305.959686,81.618713 
	C302.049805,89.093910 298.045380,96.519600 294.101349,103.976982 
	C288.732239,114.128853 283.245422,124.221718 278.068573,134.470932 
	C274.329742,141.873062 271.265350,149.619003 267.454651,156.981003 
	C260.217896,170.961838 260.084442,170.894760 271.332306,176.719925 
	C271.605042,176.861191 271.950073,176.862854 271.904205,176.853012 
	C274.209747,174.292603 276.386993,171.874649 277.820404,170.282745 
	C281.245300,171.462540 283.694946,173.235641 285.599152,172.771423 
	C289.731232,171.764069 293.630493,169.712753 297.540802,167.906189 
	C303.057861,165.357330 308.311157,162.109558 314.009857,160.107544 
	C327.381256,155.410034 339.896332,148.941574 349.959564,139.187225 
	C361.574127,127.929100 370.917480,115.012093 374.448700,98.300095 
	C375.655029,92.590897 376.216370,87.936989 374.033325,82.702599 
	C371.318512,76.193100 363.839905,72.531097 358.586487,74.327103 
	C350.865479,76.966690 343.031616,79.772583 336.016602,83.837708 
	C329.361938,87.694054 323.699127,93.261978 317.072601,98.622833 
M36.353386,101.150154 
	C34.758072,106.085121 33.382580,111.104767 31.520922,115.937126 
	C27.832193,125.512039 28.868986,135.474533 29.230057,145.272552 
	C29.377781,149.281128 31.580183,153.385590 33.481224,157.124374 
	C38.329853,166.660202 46.323135,171.507111 56.870651,173.645660 
	C67.950821,175.892212 77.948997,174.222702 88.004066,169.607590 
	C103.069336,162.692902 113.726196,151.220413 121.772980,137.251938 
	C124.510078,132.500610 129.419510,128.174652 127.869888,121.908066 
	C125.515495,120.432617 123.480247,118.799133 121.163498,117.860207 
	C120.047829,117.408051 117.664520,117.773933 117.109985,118.605804 
	C111.814125,126.550316 107.241280,135.009689 101.579842,142.670135 
	C92.351837,155.156464 80.419739,163.137375 63.986103,162.018448 
	C61.996033,161.882965 59.945911,161.734589 57.997437,162.049271 
	C51.922089,163.030411 42.573734,152.726746 42.039917,147.418716 
	C41.074184,137.815964 42.563053,128.409866 45.369854,119.274025 
	C49.684235,105.231186 57.278339,92.759399 65.738441,80.977654 
	C75.563072,67.295654 86.780945,54.697044 100.681526,44.892391 
	C110.646713,37.863537 121.332947,32.238407 133.511642,29.980087 
	C139.341034,28.899136 145.158615,27.754644 151.722015,26.497051 
	C150.752991,22.040682 149.883667,18.042793 148.828857,13.191929 
	C142.579086,14.197115 136.918625,14.837379 131.388931,16.066149 
	C124.671486,17.558855 117.506966,18.477104 111.544167,21.580942 
	C103.249901,25.898388 95.912369,32.044422 88.128487,37.353737 
	C73.073112,47.622864 62.491894,62.259552 51.257149,76.087608 
	C45.363342,83.341873 41.644135,92.362923 36.353386,101.150154 
M171.407074,848.173828 
	C171.281876,850.053528 171.156677,851.933228 171.044647,853.615234 
	C177.330826,855.064636 180.886887,853.281860 182.116348,847.219543 
	C182.607880,844.795776 184.128860,842.575317 185.215683,840.278687 
	C188.794815,832.715576 192.485977,825.203796 195.954422,817.590454 
	C200.405045,807.821228 204.441772,797.856995 209.105225,788.193176 
	C213.177979,779.753418 213.208740,778.675537 205.065613,772.343872 
	C191.375214,783.486816 177.479858,794.796570 163.584503,806.106323 
	C163.187393,805.888245 162.790298,805.670227 162.393188,805.452148 
	C164.925293,798.634705 166.856323,791.509338 170.149567,785.081909 
	C173.831161,777.896484 174.330322,777.757080 168.731674,772.245667 
	C168.269150,771.790405 167.752350,771.390320 167.113159,770.836731 
	C165.839813,771.616333 164.517410,772.259460 163.384613,773.145081 
	C151.265900,782.619629 139.192291,792.152039 127.049133,801.595093 
	C126.161232,802.285583 124.829857,802.405884 122.667091,803.146667 
	C124.148148,799.522461 124.941406,797.240356 125.999168,795.088196 
	C127.070374,792.908691 128.412842,790.863220 129.619659,788.749512 
	C133.858856,781.324707 133.013275,777.413147 125.558243,773.796875 
	C123.250404,779.145020 121.103394,784.542480 118.622620,789.781982 
	C113.374237,800.866760 107.896614,811.842773 102.618782,822.913818 
	C98.782738,830.960327 94.905128,839.001709 91.542938,847.247925 
	C90.823196,849.013123 91.596367,853.027161 92.816322,853.603394 
	C95.394203,854.821106 98.556725,854.454102 100.105385,850.774719 
	C101.232414,848.097046 102.738037,845.496094 104.497314,843.182129 
	C110.542969,835.230469 116.508896,827.191162 123.023270,819.631775 
	C127.808678,814.078735 133.355042,809.172424 138.658447,804.078064 
	C142.119324,800.753540 145.627655,797.452881 149.365143,794.453552 
	C151.038895,793.110291 153.326584,792.532166 155.335693,791.606873 
	C155.802780,792.080139 156.269852,792.553406 156.736938,793.026672 
	C155.159393,796.151245 153.433578,799.211121 152.034500,802.413635 
	C148.927185,809.526428 145.970947,816.705505 142.976715,823.867371 
	C139.671753,831.772461 136.306702,839.654541 133.174393,847.627808 
	C132.529663,849.269043 132.189758,852.604187 132.753479,852.860352 
	C134.696732,853.743164 137.302277,854.257874 139.266968,853.652222 
	C140.782181,853.185181 141.761398,850.859680 142.896484,849.300476 
	C147.154663,843.451355 150.955353,837.206116 155.704193,831.790344 
	C165.556107,820.554749 175.806244,809.660278 186.145996,798.868225 
	C187.862808,797.076477 190.861221,796.512512 194.027878,795.023560 
	C193.911926,797.493103 194.153427,798.597839 193.774734,799.415344 
	C191.013428,805.376587 187.961914,811.207336 185.317780,817.218201 
	C180.835205,827.408081 176.584854,837.700195 171.407074,848.173828 
M267.446045,795.939331 
	C269.688660,800.774414 271.372803,805.995239 274.357849,810.317566 
	C276.581146,813.536865 276.937286,816.760437 275.093170,819.075073 
	C269.518280,826.072144 263.327454,832.586304 257.240265,839.162415 
	C255.426056,841.122314 252.934479,842.462585 251.159149,844.449402 
	C248.645721,847.262329 249.774094,850.101990 252.189606,852.337952 
	C253.045761,853.130371 255.133774,853.881409 255.754227,853.423889 
	C259.078522,850.972412 262.323212,848.334595 265.206085,845.381165 
	C269.595612,840.884094 273.578217,835.992737 277.895050,831.421204 
	C282.901978,826.118958 283.996002,826.388000 287.087616,833.070679 
	C287.315094,833.562378 288.134979,833.749573 288.474823,834.224670 
	C291.463013,838.402405 294.624603,842.478699 297.302399,846.849915 
	C300.383728,851.879883 303.714447,855.880737 310.571350,853.564087 
	C310.403656,852.208130 310.717468,850.339478 309.947418,849.209595 
	C303.188385,839.292053 296.166840,829.553040 289.448151,819.609070 
	C288.775604,818.613647 289.059753,816.252563 289.809113,815.134888 
	C294.031433,808.837830 298.760101,802.874084 302.858521,796.502319 
	C305.657013,792.151550 307.877106,787.397034 310.027588,782.673645 
	C311.239380,780.012146 310.950104,777.319824 307.668518,776.025269 
	C304.914795,774.938904 302.744141,774.107178 301.581024,778.501099 
	C300.623688,782.117432 298.067810,785.349792 296.025757,788.631165 
	C292.304993,794.610291 288.439972,800.499573 284.289429,806.964783 
	C275.652466,797.179016 272.074829,786.151184 268.077271,774.798767 
	C265.166748,776.049622 262.037323,777.394531 259.513855,778.479004 
	C262.292694,784.662720 264.672638,789.958679 267.446045,795.939331 
M220.048721,842.812805 
	C222.231812,837.835510 224.348328,832.827698 226.610809,827.886719 
	C232.847733,814.265686 239.041351,800.623169 245.460693,787.088013 
	C249.038971,779.543213 248.593384,778.088135 240.126923,775.066772 
	C236.973114,782.643188 233.981552,790.322510 230.609665,797.831116 
	C222.728439,815.381409 213.761093,832.485718 208.552597,850.749023 
	C210.145157,851.899048 211.015228,852.890564 212.083420,853.201721 
	C213.265884,853.546143 215.479904,853.728210 215.773605,853.185181 
	C217.428787,850.125183 218.641464,846.825806 220.048721,842.812805 
M150.097610,172.445679 
	C150.292938,172.516037 150.488266,172.586411 150.683594,172.656784 
	C150.620422,172.451141 150.557251,172.245483 150.097610,172.445679 
z"/>
<path fill="#DEE2E6" opacity="1.000000" stroke="none" 
	d="
M354.833344,511.000275 
	C354.222229,513.820007 353.337463,516.611816 353.046326,519.464172 
	C351.619049,533.448975 350.263397,547.442505 349.062622,561.448303 
	C348.499084,568.021301 348.359619,574.630066 347.996063,581.220825 
	C347.342255,593.072998 347.740326,605.122925 345.597992,616.701477 
	C344.287354,623.784912 345.619904,630.990784 343.697754,637.545898 
	C341.621948,644.624878 343.571716,651.835632 341.705414,658.409180 
	C339.557556,665.974243 341.648315,673.712585 339.668457,680.758484 
	C337.626373,688.025879 338.723846,695.097839 337.955017,702.204285 
	C336.804138,712.841980 335.228119,723.433838 334.090546,734.072754 
	C333.507721,739.523071 333.574707,745.040710 333.116150,750.508545 
	C333.042206,751.389771 331.849731,752.299927 330.984497,752.940186 
	C330.553101,753.259460 329.692230,752.999817 329.025635,752.999817 
	C247.531876,752.999878 166.038116,752.999756 84.544350,752.999695 
	C83.563812,752.999695 82.583275,752.999695 81.404907,752.999695 
	C80.587448,745.046936 79.938095,737.306641 78.965843,729.607239 
	C77.539169,718.309082 75.882889,707.040039 74.317841,695.759460 
	C74.250183,695.271851 74.062439,694.797913 74.021584,694.309998 
	C73.338943,686.157471 72.941765,677.969543 71.916382,669.860840 
	C71.047943,662.993286 69.456963,656.217102 68.182785,649.401001 
	C68.152573,649.239380 68.058533,649.087219 68.042641,648.925781 
	C67.358330,641.973816 66.898521,634.990967 65.939964,628.077209 
	C64.930054,620.793152 63.444054,613.575073 62.167400,606.327881 
	C62.110229,606.003418 62.055519,605.677795 62.017689,605.350647 
	C60.706566,594.008606 59.252316,582.680481 58.142097,571.318726 
	C57.460594,564.344360 57.587254,557.288574 56.847530,550.322876 
	C55.808895,540.542419 54.311249,530.810486 52.993427,521.060059 
	C51.667686,511.250977 50.451996,501.424469 48.938164,491.644318 
	C47.952637,485.277344 46.205132,479.020935 45.367939,472.640320 
	C44.316032,464.623230 44.491497,456.401520 42.923058,448.509399 
	C41.632301,442.014557 43.543606,435.090973 40.073761,428.971100 
	C39.926888,428.712067 40.030056,428.315308 40.002842,427.983826 
	C39.336330,419.864380 38.940922,411.710449 37.915901,403.636444 
	C37.052616,396.836487 35.456882,390.129517 34.186371,383.381195 
	C34.125454,383.057587 34.050346,382.734253 34.021904,382.407288 
	C33.344608,374.621765 32.792576,366.822968 31.963938,359.053680 
	C31.237747,352.244934 30.177206,345.472351 29.310555,338.677917 
	C28.508532,332.390198 27.863369,326.081085 26.976679,319.805786 
	C25.768839,311.257599 24.302856,302.745392 23.138294,294.191803 
	C22.606554,290.286255 22.530815,286.318573 22.932354,282.173096 
	C25.022079,280.978363 26.427708,279.989655 28.024986,279.373901 
	C29.810362,290.341095 31.689260,300.902313 32.920864,311.538483 
	C34.261108,323.112946 35.000275,334.757019 36.001564,346.370728 
	C36.058342,347.029266 36.057945,347.698822 36.181637,348.344574 
	C37.442684,354.927643 38.820911,361.490021 39.967030,368.092743 
	C40.792767,372.849792 41.353325,377.654510 41.968010,382.446167 
	C43.332523,393.083038 44.811394,403.708374 45.961956,414.368805 
	C47.798302,431.383392 49.252651,448.440033 51.176670,465.444031 
	C52.080978,473.436066 53.889713,481.322113 54.947109,489.301483 
	C56.028156,497.459381 56.636372,505.678802 57.549667,513.860352 
	C58.990738,526.769958 60.460480,539.676941 62.023190,552.572266 
	C62.885925,559.691528 64.067688,566.772278 64.917290,573.892883 
	C66.041389,583.314148 67.031677,592.752319 67.983994,602.192932 
	C68.740501,609.692444 69.030022,617.253052 70.104408,624.703308 
	C71.815369,636.567810 74.280457,648.325500 75.911743,660.199036 
	C77.314941,670.412476 77.986519,680.725952 79.004601,690.992859 
	C79.665642,697.658997 80.234612,704.338074 81.084030,710.980835 
	C82.272591,720.275757 84.014023,729.511658 84.877190,738.832214 
	C85.401474,744.493408 86.671989,746.122253 92.079498,746.110840 
	C168.901398,745.948181 245.723740,746.000000 322.545990,746.000000 
	C324.193970,746.000000 325.841919,746.000000 327.997040,746.000000 
	C328.348602,742.910767 328.761169,740.055176 328.981323,737.184814 
	C329.397003,731.765564 329.492523,726.314331 330.097778,720.918579 
	C331.259491,710.561951 332.997192,700.262512 333.916687,689.888062 
	C334.947571,678.257019 335.336914,666.569153 336.005066,654.906006 
	C336.014618,654.739624 336.012512,654.572388 336.027649,654.406616 
	C337.351013,639.887634 338.788696,625.377808 339.962402,610.846680 
	C340.823273,600.188354 341.337860,589.502075 342.007935,578.828308 
	C342.028687,578.497681 342.055298,578.167175 342.090485,577.837830 
	C343.392792,565.642517 344.746185,553.452332 345.985352,541.250610 
	C347.110291,530.173645 348.111115,519.084045 349.485077,508.070801 
	C351.480103,509.094421 353.156738,510.047333 354.833344,511.000275 
z"/>
<path fill="#DEE2E6" opacity="1.000000" stroke="none" 
	d="
M317.336365,98.350037 
	C323.699127,93.261978 329.361938,87.694054 336.016602,83.837708 
	C343.031616,79.772583 350.865479,76.966690 358.586487,74.327103 
	C363.839905,72.531097 371.318512,76.193100 374.033325,82.702599 
	C376.216370,87.936989 375.655029,92.590897 374.448700,98.300095 
	C370.917480,115.012093 361.574127,127.929100 349.959564,139.187225 
	C339.896332,148.941574 327.381256,155.410034 314.009857,160.107544 
	C308.311157,162.109558 303.057861,165.357330 297.540802,167.906189 
	C293.630493,169.712753 289.731232,171.764069 285.599152,172.771423 
	C283.694946,173.235641 281.245300,171.462540 277.820404,170.282745 
	C276.386993,171.874649 274.209747,174.292603 271.904205,176.853012 
	C271.950073,176.862854 271.605042,176.861191 271.332306,176.719925 
	C260.084442,170.894760 260.217896,170.961838 267.454651,156.981003 
	C271.265350,149.619003 274.329742,141.873062 278.068573,134.470932 
	C283.245422,124.221718 288.732239,114.128853 294.101349,103.976982 
	C298.045380,96.519600 302.049805,89.093910 305.959686,81.618713 
	C309.191162,75.440498 312.156525,69.117790 315.536682,63.023785 
	C321.571259,52.144131 327.827728,41.387508 333.995819,30.581944 
	C336.006378,27.059782 337.989349,23.520397 340.092255,20.054007 
	C340.413727,19.524094 341.569183,18.890892 341.914093,19.080061 
	C344.896881,20.715969 348.290070,22.075397 350.459656,24.501898 
	C351.393829,25.546736 350.296631,29.245182 349.159760,31.169390 
	C341.444031,44.228615 333.298340,57.034870 325.639832,70.126595 
	C320.231354,79.372078 315.313599,88.908089 310.338409,98.399147 
	C309.723694,99.571854 310.105957,101.267143 310.026245,102.720268 
	C310.412170,103.041275 310.798065,103.362282 311.183990,103.683289 
	C313.146851,101.996475 315.109711,100.309654 317.336365,98.350037 
M295.062683,154.723679 
	C301.449280,152.269135 308.057190,150.263290 314.167816,147.249222 
	C322.247559,143.263870 330.044159,138.665131 337.766113,134.004669 
	C345.730408,129.197983 352.299347,122.752930 356.984039,114.708092 
	C359.730530,109.991592 362.038361,104.933319 363.866302,99.788185 
	C366.727753,91.734100 360.957611,85.046898 353.211487,88.275078 
	C344.020874,92.105255 334.766785,96.916489 327.235138,103.301781 
	C318.195648,110.965416 310.732178,120.558418 303.011719,129.676239 
	C299.431702,133.904205 296.771027,138.931137 293.856293,143.695404 
	C291.587830,147.403290 289.571167,151.265228 286.852478,156.110428 
	C290.403168,155.864426 292.629333,155.710190 295.062683,154.723679 
z"/>
<path fill="#DEE2E6" opacity="1.000000" stroke="none" 
	d="
M36.648140,100.868134 
	C41.644135,92.362923 45.363342,83.341873 51.257149,76.087608 
	C62.491894,62.259552 73.073112,47.622864 88.128487,37.353737 
	C95.912369,32.044422 103.249901,25.898388 111.544167,21.580942 
	C117.506966,18.477104 124.671486,17.558855 131.388931,16.066149 
	C136.918625,14.837379 142.579086,14.197115 148.828857,13.191929 
	C149.883667,18.042793 150.752991,22.040682 151.722015,26.497051 
	C145.158615,27.754644 139.341034,28.899136 133.511642,29.980087 
	C121.332947,32.238407 110.646713,37.863537 100.681526,44.892391 
	C86.780945,54.697044 75.563072,67.295654 65.738441,80.977654 
	C57.278339,92.759399 49.684235,105.231186 45.369854,119.274025 
	C42.563053,128.409866 41.074184,137.815964 42.039917,147.418716 
	C42.573734,152.726746 51.922089,163.030411 57.997437,162.049271 
	C59.945911,161.734589 61.996033,161.882965 63.986103,162.018448 
	C80.419739,163.137375 92.351837,155.156464 101.579842,142.670135 
	C107.241280,135.009689 111.814125,126.550316 117.109985,118.605804 
	C117.664520,117.773933 120.047829,117.408051 121.163498,117.860207 
	C123.480247,118.799133 125.515495,120.432617 127.869888,121.908066 
	C129.419510,128.174652 124.510078,132.500610 121.772980,137.251938 
	C113.726196,151.220413 103.069336,162.692902 88.004066,169.607590 
	C77.948997,174.222702 67.950821,175.892212 56.870651,173.645660 
	C46.323135,171.507111 38.329853,166.660202 33.481224,157.124374 
	C31.580183,153.385590 29.377781,149.281128 29.230057,145.272552 
	C28.868986,135.474533 27.832193,125.512039 31.520922,115.937126 
	C33.382580,111.104767 34.758072,106.085121 36.648140,100.868134 
z"/>
<path fill="#DEE2E6" opacity="1.000000" stroke="none" 
	d="
M27.833336,279.000916 
	C26.427708,279.989655 25.022079,280.978363 23.250494,281.962769 
	C22.263046,278.267426 21.641558,274.576416 21.463810,270.433594 
	C22.846827,269.318542 23.786100,268.655334 24.725376,267.992157 
	C23.445314,267.342163 22.165255,266.692169 20.885195,266.042175 
	C20.263477,262.656006 19.641760,259.269806 19.463791,255.432678 
	C20.846815,254.318558 21.786091,253.655380 22.725365,252.992203 
	C21.445318,252.342209 20.165274,251.692215 18.885227,251.042206 
	C18.280760,250.498016 17.191416,249.991043 17.146368,249.403931 
	C16.663765,243.114044 16.529604,236.794144 15.935465,230.516953 
	C15.245039,223.222504 14.225271,215.958023 13.281295,208.689255 
	C12.760570,204.679581 12.102182,200.687775 11.381866,195.856262 
	C134.998398,195.856262 257.732086,195.856262 381.752228,195.856262 
	C380.893860,202.376053 380.118805,208.286514 379.332062,214.195435 
	C379.267151,214.682983 379.058563,215.155579 379.025238,215.642548 
	C378.340698,225.646622 377.569336,235.646271 377.030609,245.658386 
	C376.550842,254.574203 377.480621,263.749146 375.644714,272.352264 
	C374.099518,279.593109 374.489441,286.643799 373.969757,293.777710 
	C373.432159,301.157867 373.105560,308.594238 371.902069,315.876343 
	C369.555695,330.073456 368.238464,344.304474 367.867859,358.694763 
	C367.654266,366.988220 366.056641,375.240204 365.228180,383.525452 
	C364.523743,390.570068 363.990326,397.632721 363.449768,404.692627 
	C362.602814,415.753967 361.794678,426.818329 361.005676,437.883942 
	C360.308228,447.665039 359.727570,457.454865 358.966034,467.230774 
	C358.421204,474.224792 357.704132,481.206635 356.960175,488.182800 
	C356.830658,489.397339 356.185425,490.556915 355.386780,491.566772 
	C353.719025,489.927765 352.442841,488.463867 351.093170,486.539612 
	C351.346741,480.836334 351.541626,475.581207 352.025818,470.352844 
	C353.462830,454.835388 355.147156,439.339874 356.477600,423.813751 
	C357.517487,411.678223 357.817535,399.470428 359.155212,387.373108 
	C359.793793,381.597687 360.158508,375.929626 360.328369,370.120972 
	C360.641388,359.417236 363.133392,348.795868 363.887238,338.081757 
	C364.878082,324.000031 365.341339,309.915649 367.867615,295.952087 
	C369.251923,288.300568 369.308136,280.410950 370.007050,272.632629 
	C370.587219,266.175873 370.133331,259.814758 371.580231,253.196899 
	C373.797638,243.055130 373.305084,232.324402 374.012634,221.847031 
	C374.265594,218.101440 374.157593,214.232422 375.100159,210.653000 
	C377.081421,203.129150 375.726807,201.001663 367.957886,201.001389 
	C298.823425,200.999008 229.688965,201.000000 160.554504,201.000000 
	C115.253044,201.000000 69.951591,201.000000 24.650133,201.000000 
	C22.874405,201.000000 21.098677,201.000000 19.182085,201.000000 
	C19.182085,205.149094 18.833117,208.811401 19.249529,212.384537 
	C20.361835,221.928986 21.802872,231.435104 22.875380,241.236481 
	C23.369438,244.011093 24.101387,246.505692 24.906797,249.443573 
	C25.024635,252.576782 25.069012,255.266678 24.890749,258.203766 
	C25.389851,260.300720 26.111593,262.150513 26.906811,264.452332 
	C27.024654,268.255096 27.069023,271.605835 26.903233,275.168457 
	C27.073162,276.253662 27.453249,277.126953 27.897270,278.250427 
	C27.918583,278.667389 27.875957,278.834137 27.833336,279.000916 
z"/>
<path fill="#DEE2E6" opacity="1.000000" stroke="none" 
	d="
M171.821991,848.061584 
	C176.584854,837.700195 180.835205,827.408081 185.317780,817.218201 
	C187.961914,811.207336 191.013428,805.376587 193.774734,799.415344 
	C194.153427,798.597839 193.911926,797.493103 194.027878,795.023560 
	C190.861221,796.512512 187.862808,797.076477 186.145996,798.868225 
	C175.806244,809.660278 165.556107,820.554749 155.704193,831.790344 
	C150.955353,837.206116 147.154663,843.451355 142.896484,849.300476 
	C141.761398,850.859680 140.782181,853.185181 139.266968,853.652222 
	C137.302277,854.257874 134.696732,853.743164 132.753479,852.860352 
	C132.189758,852.604187 132.529663,849.269043 133.174393,847.627808 
	C136.306702,839.654541 139.671753,831.772461 142.976715,823.867371 
	C145.970947,816.705505 148.927185,809.526428 152.034500,802.413635 
	C153.433578,799.211121 155.159393,796.151245 156.736938,793.026672 
	C156.269852,792.553406 155.802780,792.080139 155.335693,791.606873 
	C153.326584,792.532166 151.038895,793.110291 149.365143,794.453552 
	C145.627655,797.452881 142.119324,800.753540 138.658447,804.078064 
	C133.355042,809.172424 127.808678,814.078735 123.023270,819.631775 
	C116.508896,827.191162 110.542969,835.230469 104.497314,843.182129 
	C102.738037,845.496094 101.232414,848.097046 100.105385,850.774719 
	C98.556725,854.454102 95.394203,854.821106 92.816322,853.603394 
	C91.596367,853.027161 90.823196,849.013123 91.542938,847.247925 
	C94.905128,839.001709 98.782738,830.960327 102.618782,822.913818 
	C107.896614,811.842773 113.374237,800.866760 118.622620,789.781982 
	C121.103394,784.542480 123.250404,779.145020 125.558243,773.796875 
	C133.013275,777.413147 133.858856,781.324707 129.619659,788.749512 
	C128.412842,790.863220 127.070374,792.908691 125.999168,795.088196 
	C124.941406,797.240356 124.148148,799.522461 122.667091,803.146667 
	C124.829857,802.405884 126.161232,802.285583 127.049133,801.595093 
	C139.192291,792.152039 151.265900,782.619629 163.384613,773.145081 
	C164.517410,772.259460 165.839813,771.616333 167.113159,770.836731 
	C167.752350,771.390320 168.269150,771.790405 168.731674,772.245667 
	C174.330322,777.757080 173.831161,777.896484 170.149567,785.081909 
	C166.856323,791.509338 164.925293,798.634705 162.393188,805.452148 
	C162.790298,805.670227 163.187393,805.888245 163.584503,806.106323 
	C177.479858,794.796570 191.375214,783.486816 205.065613,772.343872 
	C213.208740,778.675537 213.177979,779.753418 209.105225,788.193176 
	C204.441772,797.856995 200.405045,807.821228 195.954422,817.590454 
	C192.485977,825.203796 188.794815,832.715576 185.215683,840.278687 
	C184.128860,842.575317 182.607880,844.795776 182.116348,847.219543 
	C180.886887,853.281860 177.330826,855.064636 171.044647,853.615234 
	C171.156677,851.933228 171.281876,850.053528 171.821991,848.061584 
z"/>
<path fill="#DEE2E6" opacity="1.000000" stroke="none" 
	d="
M206.010727,128.833344 
	C203.635590,134.019424 201.187576,139.174240 198.939117,144.414673 
	C198.410812,145.646011 198.556442,147.166489 198.223434,149.976486 
	C225.959366,127.132828 248.866150,102.304337 265.811066,72.019135 
	C266.518616,72.311348 267.428070,72.625175 268.282684,73.049446 
	C277.044403,77.399124 277.345795,79.504860 272.031647,88.081116 
	C269.159973,92.715553 267.230072,97.944031 264.983917,102.953217 
	C261.256134,111.266617 257.680450,119.648544 253.921585,127.947632 
	C249.736328,137.188110 245.476593,146.396042 241.139389,155.566177 
	C237.437775,163.392471 233.580566,171.145157 229.740341,179.036942 
	C227.525940,178.029358 225.558517,177.009384 223.501160,176.225464 
	C219.862320,174.838974 218.969498,172.242340 220.740555,168.761902 
	C224.797119,160.790146 228.753067,152.765686 232.600769,144.691605 
	C232.966675,143.923828 232.603531,142.305496 231.980530,141.732040 
	C231.500046,141.289780 229.792999,141.511703 229.126953,142.050720 
	C225.508972,144.978683 222.117615,148.185867 218.512314,151.130493 
	C211.506363,156.852585 204.581482,162.698853 197.282700,168.027512 
	C193.320694,170.920090 188.671036,172.877258 184.298111,175.193207 
	C183.683731,175.518570 182.487274,175.845078 182.221848,175.558426 
	C179.648438,172.779297 175.444778,171.300186 175.494202,166.386505 
	C179.024124,166.425919 180.909119,165.301788 181.965271,162.233215 
	C183.357803,158.187286 184.960403,154.185120 186.826706,150.335770 
	C194.803680,133.882889 202.914398,117.494896 210.969116,101.079681 
	C215.026123,92.811646 219.067719,84.536041 223.070526,76.357338 
	C225.393448,77.019623 227.113388,77.510002 228.833344,78.000381 
	C227.882614,81.416344 226.931870,84.832306 225.750244,88.748154 
	C225.320694,89.417831 225.151138,89.612923 225.010712,89.833336 
	C220.797226,98.284508 216.562485,106.725220 212.393082,115.198082 
	C211.765991,116.472397 211.444092,117.896896 210.750183,119.749985 
	C210.320694,120.417831 210.151138,120.612923 210.010712,120.833336 
	C209.667404,121.655251 209.324097,122.477165 208.750092,123.773560 
	C208.320694,124.417831 208.151138,124.612923 208.010712,124.833336 
	C207.667419,125.655251 207.324112,126.477165 206.750092,127.773560 
	C206.320679,128.417816 206.151138,128.612915 206.010727,128.833344 
z"/>
<path fill="#DEE2E6" opacity="1.000000" stroke="none" 
	d="
M267.249329,795.597046 
	C264.672638,789.958679 262.292694,784.662720 259.513855,778.479004 
	C262.037323,777.394531 265.166748,776.049622 268.077271,774.798767 
	C272.074829,786.151184 275.652466,797.179016 284.289429,806.964783 
	C288.439972,800.499573 292.304993,794.610291 296.025757,788.631165 
	C298.067810,785.349792 300.623688,782.117432 301.581024,778.501099 
	C302.744141,774.107178 304.914795,774.938904 307.668518,776.025269 
	C310.950104,777.319824 311.239380,780.012146 310.027588,782.673645 
	C307.877106,787.397034 305.657013,792.151550 302.858521,796.502319 
	C298.760101,802.874084 294.031433,808.837830 289.809113,815.134888 
	C289.059753,816.252563 288.775604,818.613647 289.448151,819.609070 
	C296.166840,829.553040 303.188385,839.292053 309.947418,849.209595 
	C310.717468,850.339478 310.403656,852.208130 310.571350,853.564087 
	C303.714447,855.880737 300.383728,851.879883 297.302399,846.849915 
	C294.624603,842.478699 291.463013,838.402405 288.474823,834.224670 
	C288.134979,833.749573 287.315094,833.562378 287.087616,833.070679 
	C283.996002,826.388000 282.901978,826.118958 277.895050,831.421204 
	C273.578217,835.992737 269.595612,840.884094 265.206085,845.381165 
	C262.323212,848.334595 259.078522,850.972412 255.754227,853.423889 
	C255.133774,853.881409 253.045761,853.130371 252.189606,852.337952 
	C249.774094,850.101990 248.645721,847.262329 251.159149,844.449402 
	C252.934479,842.462585 255.426056,841.122314 257.240265,839.162415 
	C263.327454,832.586304 269.518280,826.072144 275.093170,819.075073 
	C276.937286,816.760437 276.581146,813.536865 274.357849,810.317566 
	C271.372803,805.995239 269.688660,800.774414 267.249329,795.597046 
z"/>
<path fill="#DEE2E6" opacity="1.000000" stroke="none" 
	d="
M141.166656,169.010727 
	C141.107559,168.574631 141.048477,168.138550 141.264526,167.219910 
	C142.743301,165.283936 144.379944,164.014130 145.085663,162.349625 
	C155.833801,136.999008 166.503754,111.614914 177.088058,86.195358 
	C180.213013,78.690331 182.487610,70.789337 186.084961,63.532310 
	C192.079773,51.438789 199.030090,39.821499 205.149323,27.785694 
	C207.332825,23.490955 209.801010,22.129629 214.117294,24.039986 
	C214.083008,24.465614 214.048721,24.891243 213.878860,25.811790 
	C213.866669,26.885593 213.990067,27.464478 214.113464,28.043358 
	C213.071777,30.458004 212.030090,32.872650 210.753876,35.767693 
	C210.320694,36.417854 210.151138,36.612938 210.010712,36.833336 
	C205.762314,45.295380 201.513931,53.757427 197.143341,62.859703 
	C197.028336,63.704628 197.035538,63.909332 197.042725,64.114037 
	C196.690048,64.871529 196.337372,65.629028 195.752029,66.817291 
	C195.320694,67.417831 195.151138,67.612923 195.010712,67.833336 
	C194.667419,68.655251 194.324112,69.477165 193.750092,70.773560 
	C193.320694,71.417831 193.151138,71.612923 193.010712,71.833336 
	C192.667419,72.655251 192.324112,73.477165 191.750092,74.773560 
	C191.320694,75.417831 191.151138,75.612923 191.010712,75.833336 
	C189.334152,79.640854 187.657578,83.448380 185.750183,87.751968 
	C185.320694,88.417831 185.151138,88.612923 185.010712,88.833336 
	C180.407196,98.416451 175.551544,107.889130 171.288391,117.621346 
	C168.425354,124.157333 166.567245,131.125916 163.956177,137.781967 
	C161.254089,144.670120 158.110306,151.383698 155.304413,158.232910 
	C153.490128,162.661652 151.935822,167.196884 150.164932,171.953186 
	C148.087006,171.391754 145.476517,170.686417 142.308990,169.750214 
	C141.582184,169.320679 141.387085,169.151138 141.166656,169.010727 
z"/>
<path fill="#DEE2E6" opacity="1.000000" stroke="none" 
	d="
M214.428589,23.889812 
	C209.801010,22.129629 207.332825,23.490955 205.149323,27.785694 
	C199.030090,39.821499 192.079773,51.438789 186.084961,63.532310 
	C182.487610,70.789337 180.213013,78.690331 177.088058,86.195358 
	C166.503754,111.614914 155.833801,136.999008 145.085663,162.349625 
	C144.379944,164.014130 142.743301,165.283936 141.215149,166.892181 
	C135.765869,163.418503 141.148224,160.150665 141.826569,157.202103 
	C143.197449,151.243362 146.545486,145.749207 148.987915,140.024963 
	C152.604889,131.547989 156.148209,123.039566 159.713913,114.540764 
	C163.473862,105.579041 167.138474,96.576065 171.009628,87.662743 
	C173.270020,82.458221 175.810593,77.373116 178.299316,72.270477 
	C185.086670,58.354385 191.914383,44.457977 198.724121,30.552805 
	C200.816849,26.279509 202.885406,21.994156 205.019226,17.741518 
	C205.239716,17.302116 206.003708,16.667185 206.224945,16.766998 
	C209.299042,18.153881 212.347733,19.606871 215.303833,21.224302 
	C215.512222,21.338320 214.945953,22.868158 214.428589,23.889812 
z"/>
<path fill="#DEE2E6" opacity="1.000000" stroke="none" 
	d="
M220.026855,843.210449 
	C218.641464,846.825806 217.428787,850.125183 215.773605,853.185181 
	C215.479904,853.728210 213.265884,853.546143 212.083420,853.201721 
	C211.015228,852.890564 210.145157,851.899048 208.552597,850.749023 
	C213.761093,832.485718 222.728439,815.381409 230.609665,797.831116 
	C233.981552,790.322510 236.973114,782.643188 240.126923,775.066772 
	C248.593384,778.088135 249.038971,779.543213 245.460693,787.088013 
	C239.041351,800.623169 232.847733,814.265686 226.610809,827.886719 
	C224.348328,832.827698 222.231812,837.835510 220.026855,843.210449 
z"/>
<path fill="#DEE2E6" opacity="1.000000" stroke="none" 
	d="
M228.906769,77.590851 
	C227.113388,77.510002 225.393448,77.019623 223.070526,76.357338 
	C219.067719,84.536041 215.026123,92.811646 210.969116,101.079681 
	C202.914398,117.494896 194.803680,133.882889 186.826706,150.335770 
	C184.960403,154.185120 183.357803,158.187286 181.965271,162.233215 
	C180.909119,165.301788 179.024124,166.425919 175.567322,166.000000 
	C179.937988,155.962387 184.704575,145.922165 189.482315,135.887268 
	C192.622253,129.292297 195.829483,122.728859 198.914215,116.108261 
	C202.759964,107.854340 206.512741,99.557083 210.301727,91.276741 
	C212.880554,85.641045 215.410522,79.982445 218.049042,74.374886 
	C219.064316,72.217209 220.254654,70.616982 223.283600,71.907822 
	C225.941360,73.040459 229.199951,73.094772 228.906769,77.590851 
z"/>
<path fill="#DEE2E6" opacity="1.000000" stroke="none" 
	d="
M354.906860,510.542053 
	C353.156738,510.047333 351.480103,509.094421 349.411621,507.621521 
	C349.068756,504.067719 349.117706,501.033875 349.571320,498.000031 
	C351.595093,498.000092 353.214233,498.000214 354.833344,498.000336 
	C354.882355,502.028168 354.931335,506.056030 354.906860,510.542053 
z"/>
<path fill="#DEE2E6" opacity="1.000000" stroke="none" 
	d="
M354.906769,497.585175 
	C353.214233,498.000214 351.595093,498.000092 349.498352,497.593933 
	C349.736053,493.791901 350.451355,490.395966 351.166687,487.000000 
	C352.442841,488.463867 353.719025,489.927765 355.018921,491.752991 
	C355.021790,493.799530 355.001007,495.484772 354.906769,497.585175 
z"/>
<path fill="#DEE2E6" opacity="1.000000" stroke="none" 
	d="
M18.935844,251.436829 
	C20.165274,251.692215 21.445318,252.342209 22.725365,252.992203 
	C21.786091,253.655380 20.846815,254.318558 19.537102,254.991058 
	C19.106598,253.944061 19.046530,252.887741 18.935844,251.436829 
z"/>
<path fill="#DEE2E6" opacity="1.000000" stroke="none" 
	d="
M20.935823,266.436798 
	C22.165255,266.692169 23.445314,267.342163 24.725376,267.992157 
	C23.786100,268.655334 22.846827,269.318542 21.537109,269.991028 
	C21.106596,268.944031 21.046524,267.887726 20.935823,266.436798 
z"/>
<path fill="#DEE2E6" opacity="1.000000" stroke="none" 
	d="
M214.391815,27.933022 
	C213.990067,27.464478 213.866669,26.885593 213.926010,26.129570 
	C214.295883,26.575850 214.483032,27.199266 214.391815,27.933022 
z"/>
<path fill="#DEE2E6" opacity="1.000000" stroke="none" 
	d="
M195.270966,67.871773 
	C195.151138,67.612923 195.320694,67.417831 195.676361,67.133347 
	C195.732620,67.315826 195.631912,67.613014 195.270966,67.871773 
z"/>
<path fill="#DEE2E6" opacity="1.000000" stroke="none" 
	d="
M197.299500,64.019485 
	C197.035538,63.909332 197.028336,63.704628 197.031830,63.192818 
	C197.213760,63.232121 197.385025,63.578529 197.299500,64.019485 
z"/>
<path fill="#DEE2E6" opacity="1.000000" stroke="none" 
	d="
M210.270950,36.871777 
	C210.151138,36.612938 210.320694,36.417854 210.676361,36.133408 
	C210.732635,36.315895 210.631912,36.613056 210.270950,36.871777 
z"/>
<path fill="#DEE2E6" opacity="1.000000" stroke="none" 
	d="
M210.270966,120.871773 
	C210.151138,120.612923 210.320694,120.417831 210.676361,120.133347 
	C210.732635,120.315834 210.631927,120.613022 210.270966,120.871773 
z"/>
<path fill="#DEE2E6" opacity="1.000000" stroke="none" 
	d="
M193.270966,71.871773 
	C193.151138,71.612923 193.320694,71.417831 193.676361,71.133347 
	C193.732635,71.315834 193.631927,71.613022 193.270966,71.871773 
z"/>
<path fill="#DEE2E6" opacity="1.000000" stroke="none" 
	d="
M191.270966,75.871773 
	C191.151138,75.612923 191.320694,75.417831 191.676361,75.133347 
	C191.732620,75.315826 191.631912,75.613014 191.270966,75.871773 
z"/>
<path fill="#DEE2E6" opacity="1.000000" stroke="none" 
	d="
M185.270966,88.871773 
	C185.151138,88.612923 185.320694,88.417831 185.676361,88.133347 
	C185.732620,88.315826 185.631912,88.613014 185.270966,88.871773 
z"/>
<path fill="#DEE2E6" opacity="1.000000" stroke="none" 
	d="
M225.270966,89.871773 
	C225.151138,89.612923 225.320694,89.417831 225.676361,89.133347 
	C225.732635,89.315834 225.631927,89.613022 225.270966,89.871773 
z"/>
<path fill="#DEE2E6" opacity="1.000000" stroke="none" 
	d="
M150.295837,172.242767 
	C150.557251,172.245483 150.620422,172.451141 150.683594,172.656784 
	C150.488266,172.586411 150.292938,172.516037 150.295837,172.242767 
z"/>
<path fill="#DEE2E6" opacity="1.000000" stroke="none" 
	d="
M141.128235,169.270981 
	C141.387085,169.151138 141.582184,169.320679 141.866669,169.676361 
	C141.684174,169.732635 141.386993,169.631927 141.128235,169.270981 
z"/>
<path fill="#DEE2E6" opacity="1.000000" stroke="none" 
	d="
M206.270981,128.871765 
	C206.151138,128.612915 206.320679,128.417816 206.676361,128.133331 
	C206.732651,128.315826 206.631943,128.613007 206.270981,128.871765 
z"/>
<path fill="#DEE2E6" opacity="1.000000" stroke="none" 
	d="
M208.270950,124.871773 
	C208.151138,124.612923 208.320694,124.417831 208.676346,124.133347 
	C208.732620,124.315826 208.631912,124.613014 208.270950,124.871773 
z"/>
<path fill="#212529" opacity="1.000000" stroke="none" 
	d="
M351.093140,486.539612 
	C350.451355,490.395966 349.736053,493.791901 349.093689,497.593964 
	C349.117706,501.033875 349.068756,504.067719 349.093201,507.550781 
	C348.111115,519.084045 347.110291,530.173645 345.985352,541.250610 
	C344.746185,553.452332 343.392792,565.642517 342.090485,577.837830 
	C342.055298,578.167175 342.028687,578.497681 342.007935,578.828308 
	C341.337860,589.502075 340.823273,600.188354 339.962402,610.846680 
	C338.788696,625.377808 337.351013,639.887634 336.027649,654.406616 
	C336.012512,654.572388 336.014618,654.739624 336.005066,654.906006 
	C335.336914,666.569153 334.947571,678.257019 333.916687,689.888062 
	C332.997192,700.262512 331.259491,710.561951 330.097778,720.918579 
	C329.492523,726.314331 329.397003,731.765564 328.981323,737.184814 
	C328.761169,740.055176 328.348602,742.910767 327.997040,746.000000 
	C325.841919,746.000000 324.193970,746.000000 322.545990,746.000000 
	C245.723740,746.000000 168.901398,745.948181 92.079498,746.110840 
	C86.671989,746.122253 85.401474,744.493408 84.877190,738.832214 
	C84.014023,729.511658 82.272591,720.275757 81.084030,710.980835 
	C80.234612,704.338074 79.665642,697.658997 79.004601,690.992859 
	C77.986519,680.725952 77.314941,670.412476 75.911743,660.199036 
	C74.280457,648.325500 71.815369,636.567810 70.104408,624.703308 
	C69.030022,617.253052 68.740501,609.692444 67.983994,602.192932 
	C67.031677,592.752319 66.041389,583.314148 64.917290,573.892883 
	C64.067688,566.772278 62.885925,559.691528 62.023190,552.572266 
	C60.460480,539.676941 58.990738,526.769958 57.549667,513.860352 
	C56.636372,505.678802 56.028156,497.459381 54.947109,489.301483 
	C53.889713,481.322113 52.080978,473.436066 51.176670,465.444031 
	C49.252651,448.440033 47.798302,431.383392 45.961956,414.368805 
	C44.811394,403.708374 43.332523,393.083038 41.968010,382.446167 
	C41.353325,377.654510 40.792767,372.849792 39.967030,368.092743 
	C38.820911,361.490021 37.442684,354.927643 36.181637,348.344574 
	C36.057945,347.698822 36.058342,347.029266 36.001564,346.370728 
	C35.000275,334.757019 34.261108,323.112946 32.920864,311.538483 
	C31.689260,300.902313 29.810362,290.341095 28.024984,279.373901 
	C27.875957,278.834137 27.918583,278.667389 27.970497,277.909302 
	C27.690987,276.530823 27.402187,275.743713 27.113388,274.956573 
	C27.069023,271.605835 27.024654,268.255096 26.979836,264.079681 
	C26.357386,261.488861 25.735386,259.722717 25.113388,257.956573 
	C25.069012,255.266678 25.024635,252.576782 24.979740,249.080261 
	C24.357237,245.834564 23.735254,243.395523 23.113270,240.956467 
	C21.802872,231.435104 20.361835,221.928986 19.249529,212.384537 
	C18.833117,208.811401 19.182085,205.149094 19.182085,201.000000 
	C21.098677,201.000000 22.874405,201.000000 24.650133,201.000000 
	C69.951591,201.000000 115.253044,201.000000 160.554504,201.000000 
	C229.688965,201.000000 298.823425,200.999008 367.957886,201.001389 
	C375.726807,201.001663 377.081421,203.129150 375.100159,210.653000 
	C374.157593,214.232422 374.265594,218.101440 374.012634,221.847031 
	C373.305084,232.324402 373.797638,243.055130 371.580231,253.196899 
	C370.133331,259.814758 370.587219,266.175873 370.007050,272.632629 
	C369.308136,280.410950 369.251923,288.300568 367.867615,295.952087 
	C365.341339,309.915649 364.878082,324.000031 363.887238,338.081757 
	C363.133392,348.795868 360.641388,359.417236 360.328369,370.120972 
	C360.158508,375.929626 359.793793,381.597687 359.155212,387.373108 
	C357.817535,399.470428 357.517487,411.678223 356.477600,423.813751 
	C355.147156,439.339874 353.462830,454.835388 352.025818,470.352844 
	C351.541626,475.581207 351.346741,480.836334 351.093140,486.539612 
M273.072906,696.633545 
	C271.380951,695.032166 269.688965,693.430847 267.808075,691.287964 
	C267.219971,690.820923 266.631866,690.353943 265.767731,689.246216 
	C260.988098,685.754089 258.061523,680.020813 252.160355,677.348999 
	C251.788773,676.862366 251.417191,676.375732 250.996460,675.202454 
	C250.345001,674.763367 249.693558,674.324219 248.985184,673.426086 
	C248.985184,673.426086 248.833344,672.989197 248.910217,672.468811 
	C248.613144,672.368103 248.316055,672.267334 247.415070,672.015808 
	C246.957672,671.715149 246.500275,671.414551 246.554138,670.926453 
	C246.369537,670.673157 246.184952,670.419922 245.287048,670.011108 
	C241.469147,666.337158 237.651245,662.663147 233.910233,658.468811 
	C233.613144,658.368042 233.316071,658.267334 232.391693,657.891785 
	C230.872238,656.590942 229.352798,655.290039 227.910217,653.468811 
	C227.613129,653.368103 227.316055,653.267334 226.472275,652.949036 
	C226.259308,652.629089 226.046326,652.309143 225.910217,651.468811 
	C225.613144,651.368042 225.316071,651.267334 224.391708,650.891785 
	C222.872253,649.590881 221.352798,648.290039 219.910233,646.468750 
	C219.613144,646.368042 219.316071,646.267334 218.472260,645.949036 
	C218.259293,645.629089 218.046326,645.309143 217.910217,644.468811 
	C217.613144,644.368103 217.316055,644.267334 216.472244,643.949036 
	C216.259277,643.629089 216.046310,643.309143 215.910217,642.468811 
	C215.613144,642.368042 215.316071,642.267334 214.383545,641.861145 
	C211.897461,638.858887 209.411362,635.856689 206.417175,632.240845 
	C243.873032,615.846558 280.952454,599.617065 318.031860,583.387573 
	C317.962738,583.078857 317.893616,582.770142 317.824493,582.461426 
	C239.256470,582.461426 160.688446,582.461426 81.351463,582.461426 
	C82.598244,589.424377 84.016907,596.069946 84.938705,602.783752 
	C86.460037,613.864136 87.713326,624.982483 88.983192,636.095825 
	C90.702026,651.138428 92.310844,666.193542 94.006828,681.238770 
	C94.609558,686.585693 95.326378,691.919800 95.996239,697.259033 
	C96.659470,702.545410 97.427925,707.820862 97.970352,713.119507 
	C98.606514,719.334045 99.048592,725.568420 99.566002,731.689453 
	C106.627861,731.689453 112.707558,731.689453 118.985092,731.689453 
	C118.294525,722.603699 117.628677,713.841675 116.961823,705.079773 
	C116.949188,704.913696 116.927727,704.748230 116.905479,704.583069 
	C115.604408,694.923279 114.196396,685.275024 113.148819,675.587830 
	C113.030533,674.493958 114.702263,672.659363 115.964638,672.071106 
	C119.132072,670.595093 122.655022,669.885559 125.831711,668.425476 
	C136.051010,663.728516 146.161880,658.796387 156.346603,654.023254 
	C163.311493,650.759094 170.435776,647.818115 177.291458,644.343262 
	C182.928040,641.486389 184.590775,641.518799 189.374619,646.080017 
	C197.110748,653.456238 204.845505,660.835022 212.667419,668.119751 
	C220.481110,675.396912 228.342224,682.625610 236.296494,689.748291 
	C241.112320,694.060669 246.283264,697.980103 251.045959,702.347290 
	C257.521088,708.284668 263.747101,714.493225 270.124268,720.538818 
	C270.540741,720.933594 271.335480,720.929382 272.005005,721.822876 
	C276.213440,725.292053 280.356262,728.846375 284.673401,732.174561 
	C285.845398,733.078064 287.543579,733.299072 289.927185,733.980469 
	C296.830627,733.980469 303.734100,733.980469 311.129456,733.980469 
	C310.974945,728.084961 306.023346,726.177795 302.779144,722.258972 
	C301.136871,720.954041 299.447296,719.703979 297.860321,718.335022 
	C289.840057,711.417053 281.846527,704.468079 273.753540,697.231506 
	C273.753540,697.231506 273.452576,697.150146 273.072906,696.633545 
M335.440369,402.000000 
	C294.777161,402.000000 254.113785,401.951965 213.450882,402.066284 
	C208.837708,402.079254 206.917114,400.689880 206.928070,395.810944 
	C207.044189,344.147064 206.997635,292.482849 207.014542,240.818710 
	C207.014954,239.566437 207.230469,238.314209 207.351334,237.000000 
	C254.936386,237.000000 302.099304,237.000000 349.262207,237.000000 
	C358.037964,237.000000 358.027283,236.998825 359.023529,228.001205 
	C359.111572,227.206024 359.569885,226.453323 359.668671,225.657593 
	C360.179535,221.542603 360.629333,217.420013 361.100433,213.299515 
	C251.276550,213.299515 142.203461,213.299515 33.243328,213.299515 
	C33.850101,218.931458 34.503639,224.272354 34.983170,229.628830 
	C35.605801,236.583679 35.987606,236.999786 42.944592,236.999832 
	C89.442307,237.000153 135.940033,237.000000 182.437744,237.000000 
	C184.204056,237.000000 185.970367,237.000000 187.712280,237.000000 
	C187.859879,238.069260 187.983551,238.547363 187.983658,239.025497 
	C187.995010,291.522919 187.970612,344.020355 188.046661,396.517670 
	C188.053238,401.055267 185.841553,402.054871 181.842529,402.046906 
	C142.677933,401.968994 103.513130,402.000000 64.348389,402.000000 
	C62.599346,402.000000 60.850304,402.000000 58.371437,402.000000 
	C59.309181,410.304535 59.627892,417.900146 61.147484,425.247406 
	C62.679951,432.657013 60.797428,440.202667 63.672527,447.691162 
	C65.862732,453.395721 65.418739,460.139557 65.976761,466.436096 
	C66.739937,475.047394 67.341377,483.673035 68.015221,492.292297 
	C68.040909,492.620972 68.084961,492.949615 68.143234,493.274139 
	C69.426514,500.421875 71.095245,507.525391 71.916771,514.725647 
	C73.470665,528.344604 74.538246,542.019104 75.815079,555.747681 
	C161.152328,555.747681 245.892166,555.747681 330.716858,555.747681 
	C330.716858,548.762451 330.716858,542.032288 330.716858,534.844116 
	C251.372620,534.844116 172.310333,534.844116 93.816849,534.844116 
	C92.100220,520.036133 90.444603,505.754364 88.665375,490.406372 
	C144.813431,490.406372 200.276932,490.406372 255.666260,490.406372 
	C255.666260,482.990570 255.666260,476.591553 255.666260,470.000000 
	C253.515594,470.000000 251.697586,470.000000 249.879593,470.000000 
	C197.715485,470.000000 145.551392,470.000732 93.387283,469.996307 
	C91.890198,469.996185 90.156166,470.407166 88.955292,469.795959 
	C87.414383,469.011719 85.396400,467.528473 85.169991,466.095764 
	C84.402779,461.240814 84.404297,456.269409 83.983276,451.353516 
	C83.396042,444.496979 82.901360,437.622162 81.980003,430.807495 
	C81.073769,424.104797 81.839745,423.000336 88.781265,423.000305 
	C170.610580,422.999878 252.439880,423.000153 334.269196,422.998718 
	C335.768951,422.998688 337.327759,423.228577 338.749908,422.891205 
	C339.898041,422.618866 341.691101,421.771606 341.809296,420.973694 
	C342.727478,414.775177 343.308685,408.526703 344.026428,402.000000 
	C341.052032,402.000000 338.734680,402.000000 335.440369,402.000000 
z"/>
<path fill="#212529" opacity="1.000000" stroke="none" 
	d="
M294.959106,155.139816 
	C292.629333,155.710190 290.403168,155.864426 286.852478,156.110428 
	C289.571167,151.265228 291.587830,147.403290 293.856293,143.695404 
	C296.771027,138.931137 299.431702,133.904205 303.011719,129.676239 
	C310.732178,120.558418 318.195648,110.965416 327.235138,103.301781 
	C334.766785,96.916489 344.020874,92.105255 353.211487,88.275078 
	C360.957611,85.046898 366.727753,91.734100 363.866302,99.788185 
	C362.038361,104.933319 359.730530,109.991592 356.984039,114.708092 
	C352.299347,122.752930 345.730408,129.197983 337.766113,134.004669 
	C330.044159,138.665131 322.247559,143.263870 314.167816,147.249222 
	C308.057190,150.263290 301.449280,152.269135 294.959106,155.139816 
z"/>
<path fill="#DEE2E6" opacity="1.000000" stroke="none" 
	d="
M22.875381,241.236481 
	C23.735254,243.395523 24.357237,245.834564 24.906279,248.636948 
	C24.101387,246.505692 23.369438,244.011093 22.875381,241.236481 
z"/>
<path fill="#DEE2E6" opacity="1.000000" stroke="none" 
	d="
M24.890747,258.203766 
	C25.735386,259.722717 26.357386,261.488861 26.906361,263.627625 
	C26.111593,262.150513 25.389851,260.300720 24.890747,258.203766 
z"/>
<path fill="#DEE2E6" opacity="1.000000" stroke="none" 
	d="
M26.903233,275.168457 
	C27.402187,275.743713 27.690987,276.530823 27.906561,277.659119 
	C27.453249,277.126953 27.073162,276.253662 26.903233,275.168457 
z"/>
<path fill="#DEE2E6" opacity="1.000000" stroke="none" 
	d="
M335.928833,402.000000 
	C338.734680,402.000000 341.052032,402.000000 344.026428,402.000000 
	C343.308685,408.526703 342.727478,414.775177 341.809296,420.973694 
	C341.691101,421.771606 339.898041,422.618866 338.749908,422.891205 
	C337.327759,423.228577 335.768951,422.998688 334.269196,422.998718 
	C252.439880,423.000153 170.610580,422.999878 88.781265,423.000305 
	C81.839745,423.000336 81.073769,424.104797 81.980003,430.807495 
	C82.901360,437.622162 83.396042,444.496979 83.983276,451.353516 
	C84.404297,456.269409 84.402779,461.240814 85.169991,466.095764 
	C85.396400,467.528473 87.414383,469.011719 88.955292,469.795959 
	C90.156166,470.407166 91.890198,469.996185 93.387283,469.996307 
	C145.551392,470.000732 197.715485,470.000000 249.879593,470.000000 
	C251.697586,470.000000 253.515594,470.000000 255.666260,470.000000 
	C255.666260,476.591553 255.666260,482.990570 255.666260,490.406372 
	C200.276932,490.406372 144.813431,490.406372 88.665375,490.406372 
	C90.444603,505.754364 92.100220,520.036133 93.816849,534.844116 
	C172.310333,534.844116 251.372620,534.844116 330.716858,534.844116 
	C330.716858,542.032288 330.716858,548.762451 330.716858,555.747681 
	C245.892166,555.747681 161.152328,555.747681 75.815079,555.747681 
	C74.538246,542.019104 73.470665,528.344604 71.916771,514.725647 
	C71.095245,507.525391 69.426514,500.421875 68.143234,493.274139 
	C68.084961,492.949615 68.040909,492.620972 68.015221,492.292297 
	C67.341377,483.673035 66.739937,475.047394 65.976761,466.436096 
	C65.418739,460.139557 65.862732,453.395721 63.672527,447.691162 
	C60.797428,440.202667 62.679951,432.657013 61.147484,425.247406 
	C59.627892,417.900146 59.309181,410.304535 58.371437,402.000000 
	C60.850304,402.000000 62.599346,402.000000 64.348389,402.000000 
	C103.513130,402.000000 142.677933,401.968994 181.842529,402.046906 
	C185.841553,402.054871 188.053238,401.055267 188.046661,396.517670 
	C187.970612,344.020355 187.995010,291.522919 187.983658,239.025497 
	C187.983551,238.547363 187.859879,238.069260 187.712280,237.000000 
	C185.970367,237.000000 184.204056,237.000000 182.437744,237.000000 
	C135.940033,237.000000 89.442307,237.000153 42.944592,236.999832 
	C35.987606,236.999786 35.605801,236.583679 34.983170,229.628830 
	C34.503639,224.272354 33.850101,218.931458 33.243328,213.299515 
	C142.203461,213.299515 251.276550,213.299515 361.100433,213.299515 
	C360.629333,217.420013 360.179535,221.542603 359.668671,225.657593 
	C359.569885,226.453323 359.111572,227.206024 359.023529,228.001205 
	C358.027283,236.998825 358.037964,237.000000 349.262207,237.000000 
	C302.099304,237.000000 254.936386,237.000000 207.351334,237.000000 
	C207.230469,238.314209 207.014954,239.566437 207.014542,240.818710 
	C206.997635,292.482849 207.044189,344.147064 206.928070,395.810944 
	C206.917114,400.689880 208.837708,402.079254 213.450882,402.066284 
	C254.113785,401.951965 294.777161,402.000000 335.928833,402.000000 
z"/>
<path fill="#DEE2E6" opacity="1.000000" stroke="none" 
	d="
M266.043732,689.886963 
	C266.631866,690.353943 267.219971,690.820923 267.907471,691.963806 
	C268.222260,696.074707 269.221771,698.563049 273.452576,697.150146 
	C273.452576,697.150146 273.753540,697.231506 273.637634,697.741333 
	C275.578217,700.936096 277.345306,703.921448 279.753021,706.242004 
	C284.388672,710.709717 289.254578,714.967407 294.290924,718.978210 
	C296.775635,720.957031 298.407898,725.508179 303.043732,722.886963 
	C306.023346,726.177795 310.974945,728.084961 311.129456,733.980469 
	C303.734100,733.980469 296.830627,733.980469 289.375641,733.570862 
	C284.094971,728.974609 279.401733,724.745422 274.576172,720.672974 
	C274.137634,720.302917 272.848419,720.940918 271.954285,721.110718 
	C271.335480,720.929382 270.540741,720.933594 270.124268,720.538818 
	C263.747101,714.493225 257.521088,708.284668 251.045959,702.347290 
	C246.283264,697.980103 241.112320,694.060669 236.296494,689.748291 
	C228.342224,682.625610 220.481110,675.396912 212.667419,668.119751 
	C204.845505,660.835022 197.110748,653.456238 189.374619,646.080017 
	C184.590775,641.518799 182.928040,641.486389 177.291458,644.343262 
	C170.435776,647.818115 163.311493,650.759094 156.346603,654.023254 
	C146.161880,658.796387 136.051010,663.728516 125.831711,668.425476 
	C122.655022,669.885559 119.132072,670.595093 115.964638,672.071106 
	C114.702263,672.659363 113.030533,674.493958 113.148819,675.587830 
	C114.196396,685.275024 115.604408,694.923279 116.905479,704.583069 
	C116.927727,704.748230 116.949188,704.913696 116.961823,705.079773 
	C117.628677,713.841675 118.294525,722.603699 118.985092,731.689453 
	C112.707558,731.689453 106.627861,731.689453 99.566002,731.689453 
	C99.048592,725.568420 98.606514,719.334045 97.970352,713.119507 
	C97.427925,707.820862 96.659470,702.545410 95.996239,697.259033 
	C95.326378,691.919800 94.609558,686.585693 94.006828,681.238770 
	C92.310844,666.193542 90.702026,651.138428 88.983192,636.095825 
	C87.713326,624.982483 86.460037,613.864136 84.938705,602.783752 
	C84.016907,596.069946 82.598244,589.424377 81.351463,582.461426 
	C160.688446,582.461426 239.256470,582.461426 317.824493,582.461426 
	C317.893616,582.770142 317.962738,583.078857 318.031860,583.387573 
	C280.952454,599.617065 243.873032,615.846558 206.417175,632.240845 
	C209.411362,635.856689 211.897461,638.858887 214.815842,642.170898 
	C215.417862,642.679382 215.612930,642.848877 215.833344,642.989197 
	C216.046310,643.309143 216.259277,643.629089 216.860199,644.214844 
	C217.417862,644.679382 217.612930,644.848877 217.833344,644.989197 
	C218.046326,645.309143 218.259293,645.629089 218.860199,646.214844 
	C219.417862,646.679382 219.612930,646.848877 219.833344,646.989197 
	C221.352798,648.290039 222.872253,649.590881 224.819916,651.186218 
	C225.417862,651.679382 225.612930,651.848877 225.833344,651.989197 
	C226.046326,652.309143 226.259308,652.629089 226.860199,653.214844 
	C227.417862,653.679382 227.612930,653.848877 227.833344,653.989197 
	C229.352798,655.290039 230.872238,656.590942 232.819916,658.186218 
	C233.417862,658.679382 233.612930,658.848877 233.833344,658.989197 
	C237.651245,662.663147 241.469147,666.337158 245.650269,670.325867 
	C246.013504,670.640625 246.042877,671.113892 246.042877,671.113892 
	C246.500275,671.414551 246.957672,671.715149 247.831604,672.248230 
	C248.417862,672.679382 248.612930,672.848877 248.833344,672.989197 
	C248.833344,672.989197 248.985184,673.426086 249.017609,673.965027 
	C249.715225,674.965637 250.380432,675.427368 251.045624,675.889099 
	C251.417191,676.375732 251.788773,676.862366 251.912109,677.892090 
	C251.536957,678.896667 251.157837,679.628906 251.320084,679.780029 
	C255.306656,683.494019 259.310944,687.193054 263.454102,690.728210 
	C263.815155,691.036316 265.157318,690.194641 266.043732,689.886963 
M129.500000,599.000000 
	C121.072998,599.000000 112.645996,599.000000 103.095032,599.000000 
	C105.168060,616.714783 107.152718,633.674438 109.229347,651.419983 
	C112.338074,650.765930 115.297287,650.605713 117.868988,649.524048 
	C130.648849,644.149170 143.301666,638.473206 156.050369,633.022888 
	C162.847244,630.117065 169.805099,627.586060 176.587677,624.648926 
	C186.053238,620.549866 195.372742,616.112488 204.851227,612.044739 
	C211.032623,609.391968 217.465317,607.318176 223.607971,604.586060 
	C225.254623,603.853638 226.250671,601.658508 227.545395,600.134827 
	C227.172165,599.756531 226.798935,599.378296 226.425705,599.000000 
	C194.450470,599.000000 162.475235,599.000000 129.500000,599.000000 
z"/>
<path fill="#DEE2E6" opacity="1.000000" stroke="none" 
	d="
M302.911438,722.572998 
	C298.407898,725.508179 296.775635,720.957031 294.290924,718.978210 
	C289.254578,714.967407 284.388672,710.709717 279.753021,706.242004 
	C277.345306,703.921448 275.578217,700.936096 273.682678,697.890564 
	C281.846527,704.468079 289.840057,711.417053 297.860321,718.335022 
	C299.447296,719.703979 301.136871,720.954041 302.911438,722.572998 
z"/>
<path fill="#DEE2E6" opacity="1.000000" stroke="none" 
	d="
M265.905731,689.566589 
	C265.157318,690.194641 263.815155,691.036316 263.454102,690.728210 
	C259.310944,687.193054 255.306656,683.494019 251.320084,679.780029 
	C251.157837,679.628906 251.536957,678.896667 251.885132,678.192749 
	C258.061523,680.020813 260.988098,685.754089 265.905731,689.566589 
z"/>
<path fill="#DEE2E6" opacity="1.000000" stroke="none" 
	d="
M271.979645,721.466797 
	C272.848419,720.940918 274.137634,720.302917 274.576172,720.672974 
	C279.401733,724.745422 284.094971,728.974609 288.912170,733.497314 
	C287.543579,733.299072 285.845398,733.078064 284.673401,732.174561 
	C280.356262,728.846375 276.213440,725.292053 271.979645,721.466797 
z"/>
<path fill="#DEE2E6" opacity="1.000000" stroke="none" 
	d="
M273.262756,696.891846 
	C269.221771,698.563049 268.222260,696.074707 268.001953,692.234558 
	C269.688965,693.430847 271.380951,695.032166 273.262756,696.891846 
z"/>
<path fill="#DEE2E6" opacity="1.000000" stroke="none" 
	d="
M251.021057,675.545776 
	C250.380432,675.427368 249.715225,674.965637 249.046082,674.194580 
	C249.693558,674.324219 250.345001,674.763367 251.021057,675.545776 
z"/>
<path fill="#DEE2E6" opacity="1.000000" stroke="none" 
	d="
M215.871780,642.729004 
	C215.612930,642.848877 215.417862,642.679382 215.133560,642.323608 
	C215.316071,642.267334 215.613144,642.368042 215.871780,642.729004 
z"/>
<path fill="#DEE2E6" opacity="1.000000" stroke="none" 
	d="
M248.871780,672.729004 
	C248.612930,672.848877 248.417862,672.679382 248.133560,672.323608 
	C248.316055,672.267334 248.613144,672.368103 248.871780,672.729004 
z"/>
<path fill="#DEE2E6" opacity="1.000000" stroke="none" 
	d="
M246.298508,671.020142 
	C246.042877,671.113892 246.013504,670.640625 246.006927,670.403625 
	C246.184952,670.419922 246.369537,670.673157 246.298508,671.020142 
z"/>
<path fill="#DEE2E6" opacity="1.000000" stroke="none" 
	d="
M233.871796,658.729004 
	C233.612930,658.848877 233.417862,658.679382 233.133575,658.323608 
	C233.316071,658.267334 233.613144,658.368042 233.871796,658.729004 
z"/>
<path fill="#DEE2E6" opacity="1.000000" stroke="none" 
	d="
M227.871780,653.729004 
	C227.612930,653.848877 227.417862,653.679382 227.133560,653.323608 
	C227.316055,653.267334 227.613129,653.368103 227.871780,653.729004 
z"/>
<path fill="#DEE2E6" opacity="1.000000" stroke="none" 
	d="
M225.871780,651.729004 
	C225.612930,651.848877 225.417862,651.679382 225.133560,651.323608 
	C225.316071,651.267334 225.613144,651.368042 225.871780,651.729004 
z"/>
<path fill="#DEE2E6" opacity="1.000000" stroke="none" 
	d="
M219.871796,646.729004 
	C219.612930,646.848877 219.417862,646.679382 219.133575,646.323608 
	C219.316071,646.267334 219.613144,646.368042 219.871796,646.729004 
z"/>
<path fill="#DEE2E6" opacity="1.000000" stroke="none" 
	d="
M217.871780,644.729004 
	C217.612930,644.848877 217.417862,644.679382 217.133560,644.323608 
	C217.316055,644.267334 217.613144,644.368103 217.871780,644.729004 
z"/>
<path fill="#212529" opacity="1.000000" stroke="none" 
	d="
M130.000000,599.000000 
	C162.475235,599.000000 194.450470,599.000000 226.425705,599.000000 
	C226.798935,599.378296 227.172165,599.756531 227.545395,600.134827 
	C226.250671,601.658508 225.254623,603.853638 223.607971,604.586060 
	C217.465317,607.318176 211.032623,609.391968 204.851227,612.044739 
	C195.372742,616.112488 186.053238,620.549866 176.587677,624.648926 
	C169.805099,627.586060 162.847244,630.117065 156.050369,633.022888 
	C143.301666,638.473206 130.648849,644.149170 117.868988,649.524048 
	C115.297287,650.605713 112.338074,650.765930 109.229347,651.419983 
	C107.152718,633.674438 105.168060,616.714783 103.095032,599.000000 
	C112.645996,599.000000 121.072998,599.000000 130.000000,599.000000 
z"/>
</svg>