<?xml version="1.0" encoding="UTF-8" standalone="no"?>
<!-- Created with Inkscape (http://www.inkscape.org/) -->

<svg
   xmlns:dc="http://purl.org/dc/elements/1.1/"
   xmlns:cc="http://creativecommons.org/ns#"
   xmlns:rdf="http://www.w3.org/1999/02/22-rdf-syntax-ns#"
   xmlns:svg="http://www.w3.org/2000/svg"
   xmlns="http://www.w3.org/2000/svg"
   xmlns:sodipodi="http://sodipodi.sourceforge.net/DTD/sodipodi-0.dtd"
   xmlns:inkscape="http://www.inkscape.org/namespaces/inkscape"
   width="320.21716"
   height="160.76505"
   id="svg11374"
   sodipodi:version="0.32"
   inkscape:version="0.48.1 r9760"
   version="1.0"
   sodipodi:docname="Metro C.svg"
   inkscape:output_extension="org.inkscape.output.svg.inkscape">
  <defs
     id="defs11376">
    <inkscape:perspective
       sodipodi:type="inkscape:persp3d"
       inkscape:vp_x="0 : 526.18109 : 1"
       inkscape:vp_y="0 : 1000 : 0"
       inkscape:vp_z="744.09448 : 526.18109 : 1"
       inkscape:persp3d-origin="372.04724 : 350.78739 : 1"
       id="perspective11382" />
  </defs>
  <sodipodi:namedview
     id="base"
     pagecolor="#ffffff"
     bordercolor="#666666"
     borderopacity="1.0"
     inkscape:pageopacity="0.0"
     inkscape:pageshadow="2"
     inkscape:zoom="0.98543502"
     inkscape:cx="153.17526"
     inkscape:cy="111.50912"
     inkscape:document-units="px"
     inkscape:current-layer="layer1"
     showgrid="false"
     inkscape:window-width="811"
     inkscape:window-height="690"
     inkscape:window-x="1"
     inkscape:window-y="0"
     inkscape:window-maximized="0" />
  <metadata
     id="metadata11379">
    <rdf:RDF>
      <cc:Work
         rdf:about="">
        <dc:format>image/svg+xml</dc:format>
        <dc:type
           rdf:resource="http://purl.org/dc/dcmitype/StillImage" />
        <dc:title></dc:title>
      </cc:Work>
    </rdf:RDF>
  </metadata>
  <g
     inkscape:label="Ebene 1"
     inkscape:groupmode="layer"
     id="layer1"
     transform="translate(-290.17887,-232.98701)">
    <g
       id="g2578"
       transform="matrix(16.472327,0,0,-16.472327,318.59499,149.41361)" />
    <g
       id="g2582"
       transform="matrix(16.472327,0,0,-16.472327,450.08392,269.93089)"
       style="fill:#00a847;fill-opacity:1;stroke:none">
      <path
         d="M 0,0 L 2.094,2.197 L 3.819,2.191 L 3.798,-3.264 L 2.254,-3.258 L 2.267,0.118 L -0.007,-2.179 L -2.262,0.135 L -2.275,-3.241 L -3.82,-3.235 L -3.799,2.22 L -2.074,2.213 L 0,0 z"
         style="fill:#00a847;fill-opacity:1;fill-rule:evenodd;stroke:none"
         id="path2584" />
    </g>
    <g
       id="g2586"
       transform="matrix(16.472327,0,0,-16.472327,290.17887,232.98701)"
       style="fill:#00a847;fill-opacity:1;stroke:none">
      <path
         d="M 0,0 L 5.455,-0.021 L 5.446,-2.365 L 2.335,-2.353 L 0,0 z"
         style="fill:#00a847;fill-opacity:1;fill-rule:evenodd;stroke:none"
         id="path2588" />
    </g>
    <g
       id="g2590"
       transform="matrix(16.472327,0,0,-16.472327,610.39604,234.22072)"
       style="fill:#00a847;fill-opacity:1;stroke:none">
      <path
         d="M 0,0 L -5.46,0.021 L -5.469,-2.323 L -2.353,-2.335 L 0,0 z"
         style="fill:#00a847;fill-opacity:1;fill-rule:evenodd;stroke:none"
         id="path2592" />
    </g>
    <g
       id="g2594"
       transform="matrix(16.472327,0,0,-16.472327,336.06418,279.228)"
       style="fill:#00a847;fill-opacity:1;stroke:none">
      <path
         d="M 0,0 L 2.659,-0.01 L 2.648,-2.669 L 0,0 z"
         style="fill:#00a847;fill-opacity:1;fill-rule:evenodd;stroke:none"
         id="path2596" />
    </g>
    <g
       id="g2598"
       transform="matrix(16.472327,0,0,-16.472327,564.15018,280.10604)"
       style="fill:#00a847;fill-opacity:1;stroke:none">
      <path
         d="M 0,0 L -2.663,0.01 L -2.673,-2.653 L 0,0 z"
         style="fill:#00a847;fill-opacity:1;fill-rule:evenodd;stroke:none"
         id="path2600" />
    </g>
    <g
       id="g2602"
       transform="matrix(16.472327,0,0,-16.472327,387.12181,330.67951)"
       style="fill:#00a847;fill-opacity:1;stroke:none">
      <path
         d="M 0,0 L 7.624,-0.029 L 3.8,-3.829 L 0,0 z"
         style="fill:#00a847;fill-opacity:1;fill-rule:evenodd;stroke:none"
         id="path2604" />
    </g>
  </g>
</svg>
