<svg version="1.1" id="Layer_1" xmlns="http://www.w3.org/2000/svg" xmlns:xlink="http://www.w3.org/1999/xlink" x="0px" y="0px"
	 width="100%" viewBox="0 0 474 235" enable-background="new 0 0 474 235" xml:space="preserve">
<path fill="#FEFEFE" opacity="1.000000" stroke="none" 
	d="
M351.000000,236.000000 
	C234.000015,236.000000 117.500038,236.000000 1.000047,236.000000 
	C1.000031,157.666702 1.000031,79.333405 1.000016,1.000078 
	C158.999939,1.000052 316.999878,1.000052 474.999878,1.000026 
	C474.999908,79.333260 474.999908,157.666519 474.999939,235.999878 
	C433.833344,236.000000 392.666656,236.000000 351.000000,236.000000 
M16.828888,129.337769 
	C0.537702,148.808807 -1.005425,176.648758 13.107207,196.481583 
	C27.970398,217.369186 53.536964,225.382477 77.223518,216.577484 
	C96.220108,209.515854 113.049232,187.258987 111.407265,170.797333 
	C78.589088,170.797333 45.718136,170.797333 12.677797,170.797333 
	C11.908957,151.293320 17.687887,134.881882 34.632858,125.224121 
	C54.841213,113.706406 74.251816,117.375961 91.876518,132.828476 
	C93.592506,131.022705 95.189087,129.342606 96.774590,127.674141 
	C77.287079,104.645149 39.701645,105.243126 16.828888,129.337769 
M130.654678,17.033064 
	C129.356873,18.032999 127.920403,18.897663 126.787766,20.058722 
	C123.637619,23.287926 120.243248,26.372026 117.616676,29.999535 
	C112.072411,37.656597 110.791870,46.440823 110.868729,55.823498 
	C110.994370,71.159912 116.554718,82.941765 130.066925,90.886559 
	C144.031464,99.097305 158.165436,100.757668 172.970917,93.506920 
	C176.574966,91.741890 180.222519,90.065666 184.898331,87.852417 
	C183.660416,85.873604 182.821060,83.524147 181.155945,82.278946 
	C180.272461,81.618248 177.503769,82.354576 176.360184,83.349754 
	C169.444839,89.367722 161.421600,91.797775 152.210999,92.016624 
	C152.210999,67.465988 152.210999,43.402176 152.210999,19.358707 
	C162.642563,18.357101 168.160889,20.145231 176.562820,26.862160 
	C179.204025,28.973663 181.650101,27.922689 183.026978,25.256453 
	C183.591034,24.164202 183.394562,21.560324 182.635132,21.079405 
	C176.191345,16.998817 170.309830,12.458380 161.876236,11.638883 
	C150.947601,10.576941 140.904572,11.210365 130.654678,17.033064 
M230.469131,182.977234 
	C242.731247,169.644470 238.273758,150.191971 221.491425,147.513046 
	C210.349518,145.734512 198.693634,147.175812 187.258484,147.175812 
	C187.258484,169.552567 187.258484,192.134750 187.258484,214.610016 
	C190.285767,214.610016 192.997742,214.610016 196.050659,214.610016 
	C196.050659,206.107895 196.050659,197.993454 196.050659,190.005875 
	C201.900879,188.627853 206.126083,189.819916 209.711060,194.765915 
	C213.897659,200.541946 219.010590,205.646805 223.724625,211.040222 
	C227.727066,215.619507 230.759262,216.335144 237.147263,214.132523 
	C233.612701,210.077301 230.116791,206.064667 226.618896,202.053741 
	C223.166840,198.095367 219.712799,194.138718 216.600693,190.572159 
	C221.348434,188.050323 225.649811,185.765564 230.469131,182.977234 
M316.989807,190.324860 
	C323.043945,209.714645 340.168274,220.411758 359.682892,216.994125 
	C375.318481,214.255844 389.460968,198.627213 388.754486,184.266098 
	C366.594666,184.266098 344.400299,184.266098 321.989655,184.266098 
	C321.522217,170.777863 325.593201,159.747726 337.099792,153.261093 
	C350.661652,145.615829 363.680786,148.151321 375.488281,158.398804 
	C376.830139,157.274780 378.059631,156.244858 379.288300,155.215637 
	C366.818298,142.765686 349.570526,140.120911 335.097595,147.926163 
	C320.146545,155.989258 313.043579,172.147659 316.989807,190.324860 
M330.058899,79.001999 
	C329.317657,77.610275 328.912231,75.469254 327.775574,74.959801 
	C323.439880,73.016586 318.901886,71.496185 314.371490,70.027557 
	C311.990143,69.255600 309.468048,68.917877 305.845367,68.131317 
	C312.238007,65.919601 317.152344,64.071136 322.161743,62.532162 
	C326.321228,61.254307 328.456207,58.402966 328.709656,54.345737 
	C328.929932,50.819805 323.355164,43.272545 320.138306,43.165531 
	C310.574860,42.847404 300.994080,43.051502 291.485229,43.051502 
	C291.485229,60.975491 291.485229,78.873016 291.485229,97.000809 
	C299.113800,97.000809 306.425262,97.003937 313.736725,97.000092 
	C325.438629,96.993935 330.503235,91.694695 330.058899,79.001999 
M234.993423,69.492058 
	C234.993393,73.156502 234.868149,76.827103 235.048187,80.482681 
	C235.133453,82.213882 235.330902,84.258980 236.286499,85.574028 
	C241.093613,92.189400 246.784592,97.493797 255.515350,98.630989 
	C264.266235,99.770790 278.120239,92.797371 278.695160,84.918396 
	C279.713928,70.956963 278.980896,56.867695 278.980896,42.785255 
	C277.266083,42.785255 275.187439,42.785255 272.698364,42.785255 
	C272.698364,50.368408 272.698364,57.636353 272.698364,65.025154 
	C271.319763,65.126961 270.344055,65.259613 269.368073,65.261566 
	C261.072845,65.278221 252.777588,65.271095 244.006775,65.271095 
	C244.006775,59.524765 244.007278,54.071556 244.006653,48.618347 
	C244.005722,40.560024 243.402039,40.076363 234.993423,41.613888 
	C234.993423,50.545650 234.993423,59.520210 234.993423,69.492058 
M122.180878,192.618378 
	C118.826080,199.964691 115.471275,207.311005 111.721855,215.521439 
	C116.268356,213.905792 121.126060,217.775482 123.712097,211.783264 
	C126.326561,205.725174 128.022400,197.458969 132.778854,194.631119 
	C137.840729,191.621658 146.020630,193.856659 152.839111,193.802017 
	C153.005539,193.800674 153.212677,193.736938 153.332321,193.811783 
	C154.945877,194.821350 157.226501,195.478546 158.027893,196.942368 
	C160.735168,201.887573 162.808914,207.175659 165.376450,212.204193 
	C165.999680,213.424789 167.489044,214.781113 168.751373,214.978210 
	C171.457458,215.400711 174.275269,215.107742 177.855576,215.107742 
	C166.735825,191.007935 155.930405,167.589371 144.818771,143.507111 
	C137.117035,160.258774 129.830734,176.106842 122.180878,192.618378 
M249.490265,199.923965 
	C247.245361,204.812805 245.000458,209.701660 242.658447,214.802002 
	C252.298431,215.475555 252.296906,215.474854 255.861374,207.693451 
	C256.484375,206.333496 257.382477,205.042175 257.716675,203.616714 
	C259.680420,195.239929 264.993866,193.860489 273.156586,193.378159 
	C284.167145,192.727524 290.009430,196.004593 293.466553,206.525116 
	C296.453033,215.613556 297.307281,215.336151 307.074768,214.974106 
	C307.325897,214.964798 307.566925,214.682495 308.127716,214.328812 
	C297.361206,191.001480 286.585541,167.654297 275.444733,143.516022 
	C266.615326,162.718201 258.218079,180.980530 249.490265,199.923965 
M402.788757,164.501740 
	C402.788757,181.266846 402.788757,198.031952 402.788757,214.706528 
	C417.514435,214.706528 431.731934,214.706528 446.120453,214.706528 
	C445.986877,211.926193 445.871246,209.519363 445.740204,206.791519 
	C433.957794,206.791519 422.848328,206.791519 411.797546,206.791519 
	C411.797546,198.672089 411.797546,190.924133 411.797546,182.638931 
	C422.133759,182.638931 432.186646,182.638931 442.274353,182.638931 
	C442.274353,179.508514 442.274353,176.926163 442.274353,173.929306 
	C431.868561,173.929306 421.770630,173.929306 411.728149,173.929306 
	C411.728149,167.064392 411.728149,160.621155 411.728149,153.680511 
	C423.182983,153.680511 434.425629,153.680511 445.837952,153.680511 
	C445.837952,151.067734 445.837952,148.956192 445.837952,146.730499 
	C431.479919,146.730499 417.282898,146.730499 402.788788,146.730499 
	C402.788788,152.553207 402.788788,158.028198 402.788757,164.501740 
M191.000137,73.497620 
	C191.000137,81.197067 191.000137,88.896515 191.000137,96.776581 
	C203.797287,96.776581 215.220673,96.776581 226.716171,96.776581 
	C227.029678,93.806061 227.323578,91.021271 227.660172,87.832085 
	C218.392105,87.832085 209.305405,87.832085 199.853378,87.832085 
	C199.853378,72.026100 199.853378,56.608753 199.853378,41.221867 
	C191.000153,40.709743 191.000153,40.709743 191.000137,49.008362 
	C191.000137,56.838383 191.000137,64.668404 191.000137,73.497620 
z"/>
<path fill="#040406" opacity="1.000000" stroke="none" 
	d="
M17.052750,129.062485 
	C39.701645,105.243126 77.287079,104.645149 96.774590,127.674141 
	C95.189087,129.342606 93.592506,131.022705 91.876518,132.828476 
	C74.251816,117.375961 54.841213,113.706406 34.632858,125.224121 
	C17.687887,134.881882 11.908957,151.293320 12.677797,170.797333 
	C45.718136,170.797333 78.589088,170.797333 111.407265,170.797333 
	C113.049232,187.258987 96.220108,209.515854 77.223518,216.577484 
	C53.536964,225.382477 27.970398,217.369186 13.107207,196.481583 
	C-1.005425,176.648758 0.537702,148.808807 17.052750,129.062485 
z"/>
<path fill="#010102" opacity="1.000000" stroke="none" 
	d="
M131.047760,16.995762 
	C140.904572,11.210365 150.947601,10.576941 161.876236,11.638883 
	C170.309830,12.458380 176.191345,16.998817 182.635132,21.079405 
	C183.394562,21.560324 183.591034,24.164202 183.026978,25.256453 
	C181.650101,27.922689 179.204025,28.973663 176.562820,26.862160 
	C168.160889,20.145231 162.642563,18.357101 152.210999,19.358707 
	C152.210999,43.402176 152.210999,67.465988 152.210999,92.016624 
	C161.421600,91.797775 169.444839,89.367722 176.360184,83.349754 
	C177.503769,82.354576 180.272461,81.618248 181.155945,82.278946 
	C182.821060,83.524147 183.660416,85.873604 184.898331,87.852417 
	C180.222519,90.065666 176.574966,91.741890 172.970917,93.506920 
	C158.165436,100.757668 144.031464,99.097305 130.066925,90.886559 
	C116.554718,82.941765 110.994370,71.159912 110.868729,55.823498 
	C110.791870,46.440823 112.072411,37.656597 117.616676,29.999535 
	C120.243248,26.372026 123.637619,23.287926 126.787766,20.058722 
	C127.920403,18.897663 129.356873,18.032999 131.047760,16.995762 
z"/>
<path fill="#050507" opacity="1.000000" stroke="none" 
	d="
M230.210159,183.229019 
	C225.649811,185.765564 221.348434,188.050323 216.600693,190.572159 
	C219.712799,194.138718 223.166840,198.095367 226.618896,202.053741 
	C230.116791,206.064667 233.612701,210.077301 237.147263,214.132523 
	C230.759262,216.335144 227.727066,215.619507 223.724625,211.040222 
	C219.010590,205.646805 213.897659,200.541946 209.711060,194.765915 
	C206.126083,189.819916 201.900879,188.627853 196.050659,190.005875 
	C196.050659,197.993454 196.050659,206.107895 196.050659,214.610016 
	C192.997742,214.610016 190.285767,214.610016 187.258484,214.610016 
	C187.258484,192.134750 187.258484,169.552567 187.258484,147.175812 
	C198.693634,147.175812 210.349518,145.734512 221.491425,147.513046 
	C238.273758,150.191971 242.731247,169.644470 230.210159,183.229019 
z"/>
<path fill="#08080A" opacity="1.000000" stroke="none" 
	d="
M316.906921,189.910583 
	C313.043579,172.147659 320.146545,155.989258 335.097595,147.926163 
	C349.570526,140.120911 366.818298,142.765686 379.288300,155.215637 
	C378.059631,156.244858 376.830139,157.274780 375.488281,158.398804 
	C363.680786,148.151321 350.661652,145.615829 337.099792,153.261093 
	C325.593201,159.747726 321.522217,170.777863 321.989655,184.266098 
	C344.400299,184.266098 366.594666,184.266098 388.754486,184.266098 
	C389.460968,198.627213 375.318481,214.255844 359.682892,216.994125 
	C340.168274,220.411758 323.043945,209.714645 316.906921,189.910583 
z"/>
<path fill="#050507" opacity="1.000000" stroke="none" 
	d="
M330.083801,79.439346 
	C330.503235,91.694695 325.438629,96.993935 313.736725,97.000092 
	C306.425262,97.003937 299.113800,97.000809 291.485229,97.000809 
	C291.485229,78.873016 291.485229,60.975491 291.485229,43.051502 
	C300.994080,43.051502 310.574860,42.847404 320.138306,43.165531 
	C323.355164,43.272545 328.929932,50.819805 328.709656,54.345737 
	C328.456207,58.402966 326.321228,61.254307 322.161743,62.532162 
	C317.152344,64.071136 312.238007,65.919601 305.845367,68.131317 
	C309.468048,68.917877 311.990143,69.255600 314.371490,70.027557 
	C318.901886,71.496185 323.439880,73.016586 327.775574,74.959801 
	C328.912231,75.469254 329.317657,77.610275 330.083801,79.439346 
z"/>
<path fill="#040406" opacity="1.000000" stroke="none" 
	d="
M234.993423,68.993416 
	C234.993423,59.520210 234.993423,50.545650 234.993423,41.613888 
	C243.402039,40.076363 244.005722,40.560024 244.006653,48.618347 
	C244.007278,54.071556 244.006775,59.524765 244.006775,65.271095 
	C252.777588,65.271095 261.072845,65.278221 269.368073,65.261566 
	C270.344055,65.259613 271.319763,65.126961 272.698364,65.025154 
	C272.698364,57.636353 272.698364,50.368408 272.698364,42.785255 
	C275.187439,42.785255 277.266083,42.785255 278.980896,42.785255 
	C278.980896,56.867695 279.713928,70.956963 278.695160,84.918396 
	C278.120239,92.797371 264.266235,99.770790 255.515350,98.630989 
	C246.784592,97.493797 241.093613,92.189400 236.286499,85.574028 
	C235.330902,84.258980 235.133453,82.213882 235.048187,80.482681 
	C234.868149,76.827103 234.993393,73.156502 234.993423,68.993416 
z"/>
<path fill="#070708" opacity="1.000000" stroke="none" 
	d="
M122.362656,192.286652 
	C129.830734,176.106842 137.117035,160.258774 144.818771,143.507111 
	C155.930405,167.589371 166.735825,191.007935 177.855576,215.107742 
	C174.275269,215.107742 171.457458,215.400711 168.751373,214.978210 
	C167.489044,214.781113 165.999680,213.424789 165.376450,212.204193 
	C162.808914,207.175659 160.735168,201.887573 158.027893,196.942368 
	C157.226501,195.478546 154.945877,194.821350 153.332321,193.811783 
	C153.212677,193.736938 153.005539,193.800674 152.839111,193.802017 
	C146.020630,193.856659 137.840729,191.621658 132.778854,194.631119 
	C128.022400,197.458969 126.326561,205.725174 123.712097,211.783264 
	C121.126060,217.775482 116.268356,213.905792 111.721855,215.521439 
	C115.471275,207.311005 118.826080,199.964691 122.362656,192.286652 
z"/>
<path fill="#060608" opacity="1.000000" stroke="none" 
	d="
M249.655548,199.583405 
	C258.218079,180.980530 266.615326,162.718201 275.444733,143.516022 
	C286.585541,167.654297 297.361206,191.001480 308.127716,214.328812 
	C307.566925,214.682495 307.325897,214.964798 307.074768,214.974106 
	C297.307281,215.336151 296.453033,215.613556 293.466553,206.525116 
	C290.009430,196.004593 284.167145,192.727524 273.156586,193.378159 
	C264.993866,193.860489 259.680420,195.239929 257.716675,203.616714 
	C257.382477,205.042175 256.484375,206.333496 255.861374,207.693451 
	C252.296906,215.474854 252.298431,215.475555 242.658447,214.802002 
	C245.000458,209.701660 247.245361,204.812805 249.655548,199.583405 
z"/>
<path fill="#0B0B0D" opacity="1.000000" stroke="none" 
	d="
M402.788757,164.002457 
	C402.788788,158.028198 402.788788,152.553207 402.788788,146.730499 
	C417.282898,146.730499 431.479919,146.730499 445.837952,146.730499 
	C445.837952,148.956192 445.837952,151.067734 445.837952,153.680511 
	C434.425629,153.680511 423.182983,153.680511 411.728149,153.680511 
	C411.728149,160.621155 411.728149,167.064392 411.728149,173.929306 
	C421.770630,173.929306 431.868561,173.929306 442.274353,173.929306 
	C442.274353,176.926163 442.274353,179.508514 442.274353,182.638931 
	C432.186646,182.638931 422.133759,182.638931 411.797546,182.638931 
	C411.797546,190.924133 411.797546,198.672089 411.797546,206.791519 
	C422.848328,206.791519 433.957794,206.791519 445.740204,206.791519 
	C445.871246,209.519363 445.986877,211.926193 446.120453,214.706528 
	C431.731934,214.706528 417.514435,214.706528 402.788757,214.706528 
	C402.788757,198.031952 402.788757,181.266846 402.788757,164.002457 
z"/>
<path fill="#010102" opacity="1.000000" stroke="none" 
	d="
M191.000137,72.998024 
	C191.000137,64.668404 191.000137,56.838383 191.000137,49.008362 
	C191.000153,40.709743 191.000153,40.709743 199.853378,41.221867 
	C199.853378,56.608753 199.853378,72.026100 199.853378,87.832085 
	C209.305405,87.832085 218.392105,87.832085 227.660172,87.832085 
	C227.323578,91.021271 227.029678,93.806061 226.716171,96.776581 
	C215.220673,96.776581 203.797287,96.776581 191.000137,96.776581 
	C191.000137,88.896515 191.000137,81.197067 191.000137,72.998024 
z"/>
</svg>