<svg version="1.1" id="Layer_1" xmlns="http://www.w3.org/2000/svg" xmlns:xlink="http://www.w3.org/1999/xlink" x="0px" y="0px"
	 width="100%" viewBox="0 0 1024 1024" enable-background="new 0 0 1024 1024" xml:space="preserve">
<path fill="#000000" opacity="1.000000" stroke="none" 
	d="
M173.970673,534.919861 
	C163.696838,504.586365 153.470413,474.653442 143.493240,444.637726 
	C141.955460,440.011383 139.874557,438.171173 134.705353,438.221100 
	C105.544510,438.502991 76.379494,438.360687 47.215908,438.348389 
	C40.691933,438.345642 40.603493,438.303833 41.651440,432.090240 
	C45.273029,410.616791 49.042072,389.167755 52.545723,367.675293 
	C53.126881,364.110321 54.654373,362.878296 58.090736,362.882660 
	C91.753777,362.925262 125.417076,362.932526 159.079803,362.810303 
	C162.611954,362.797485 164.094223,364.510986 165.247040,367.404755 
	C176.276260,395.089874 187.365128,422.751221 198.429535,450.422333 
	C207.330658,472.683289 216.221497,494.948334 225.117447,517.211365 
	C225.787735,518.888794 226.301498,520.665710 227.868149,521.839111 
	C230.175247,521.268311 230.393829,519.254761 231.026535,517.642273 
	C250.610504,467.730042 270.201294,417.820404 289.672943,367.864380 
	C291.101929,364.198181 293.097656,362.797485 297.066711,362.819733 
	C321.896576,362.959137 346.728638,362.977234 371.557495,362.755035 
	C375.829376,362.716797 377.456177,364.260345 378.110870,368.207123 
	C383.470001,400.514160 388.890564,432.811218 394.380127,465.096375 
	C399.450378,494.915619 404.656097,524.711792 409.752716,554.526550 
	C415.578552,588.607361 421.353760,622.696716 427.124451,656.786865 
	C427.285339,657.737366 427.144775,658.738831 427.144775,660.136230 
	C417.746033,660.921143 408.701019,659.401855 399.654938,658.878845 
	C384.375427,657.995667 369.134552,656.460083 353.861603,655.434082 
	C350.479645,655.206909 348.838226,654.407715 348.468994,650.674255 
	C346.701416,632.800110 344.653870,614.953552 342.702820,597.097595 
	C340.535767,577.265137 338.328552,557.437012 336.206787,537.599670 
	C333.977631,516.758667 331.964966,495.893158 329.538391,475.075623 
	C329.008850,470.532715 329.712250,465.520966 326.899200,461.377838 
	C324.186035,462.049042 323.901154,464.057739 323.194305,465.658661 
	C305.231842,506.340576 287.287445,547.030518 269.354767,587.725525 
	C265.259644,597.018677 265.290710,596.892090 254.914993,596.444519 
	C236.447052,595.647766 217.974228,594.914368 199.496078,594.443115 
	C195.503845,594.341370 193.587006,593.023376 192.338516,589.231995 
	C186.402359,571.205200 180.204453,553.264587 173.970673,534.919861 
z"/>
<path fill="#000000" opacity="1.000000" stroke="none" 
	d="
M974.225464,306.993805 
	C990.450745,306.149017 1006.200989,305.332458 1021.775818,304.524994 
	C1022.738586,307.170349 1021.123901,308.242706 1020.235718,309.524902 
	C985.040222,360.330811 949.818970,411.118896 914.605286,461.912140 
	C902.740662,479.025970 891.093811,496.296967 878.890503,513.165527 
	C875.624207,517.680420 876.261108,520.423401 879.471130,524.284973 
	C898.854004,547.601929 918.046204,571.077454 937.309021,594.494141 
	C961.122009,623.442200 984.943604,652.383118 1008.749695,681.336731 
	C1009.463013,682.204407 1010.449036,683.014832 1009.782654,685.176514 
	C1003.294495,684.781860 996.595642,684.439087 989.906982,683.954712 
	C973.643188,682.776794 957.385193,681.518555 941.122620,680.323242 
	C935.148682,679.884155 929.171814,679.462097 923.189575,679.168640 
	C920.251953,679.024536 918.308105,677.489563 916.455811,675.420593 
	C893.895874,650.220642 871.293457,625.058655 848.709839,599.879944 
	C842.813721,593.306274 836.957520,586.696716 831.048096,580.135010 
	C830.187866,579.179871 829.132141,578.400818 827.654907,577.083923 
	C822.782532,583.809509 818.097107,590.209290 813.481567,596.659180 
	C783.622131,638.385864 753.738098,680.095215 723.997559,721.906494 
	C721.388550,725.574341 718.837769,726.905090 714.137939,726.547424 
	C695.390198,725.120911 676.595032,724.320557 657.819519,723.251160 
	C655.725403,723.131897 653.438477,723.539062 651.760803,721.687073 
	C651.714233,719.429077 653.296326,717.997803 654.384460,716.390930 
	C694.738098,656.799805 735.122803,597.229797 775.505066,537.658081 
	C777.466980,534.763794 779.248413,531.718567 781.462708,529.031128 
	C784.373779,525.498047 783.772705,522.822510 780.855652,519.478882 
	C761.468506,497.256470 742.258362,474.879639 723.010864,452.535645 
	C721.436523,450.708099 719.510498,449.077820 718.750610,446.708984 
	C720.445190,445.142212 722.190491,445.718231 723.765991,445.715790 
	C750.594604,445.673981 777.423645,445.741638 804.251709,445.611847 
	C807.902954,445.594147 810.555725,446.651398 812.959473,449.379669 
	C817.031738,454.001740 821.327881,458.433350 825.652161,462.824677 
	C829.985840,467.225586 830.663879,467.148651 834.194336,461.883423 
	C842.542847,449.432465 850.806580,436.924744 859.123535,424.452576 
	C883.704834,387.590393 908.330383,350.757599 932.824402,313.837555 
	C935.100952,310.406097 937.815247,308.974152 941.842041,308.810699 
	C952.484802,308.378601 963.115112,307.639130 974.225464,306.993805 
z"/>
<path fill="#000000" opacity="1.000000" stroke="none" 
	d="
M660.054443,659.069336 
	C661.995972,664.268982 663.820068,669.096741 665.588623,673.944824 
	C666.980286,677.759521 665.872742,679.666321 661.544373,679.348022 
	C649.427429,678.456970 637.303467,677.661316 625.183533,676.810364 
	C624.189880,676.740662 623.159485,676.273682 622.224060,676.437256 
	C613.468384,677.967407 610.447327,673.013306 607.587891,665.599915 
	C594.401184,631.411621 582.592346,596.782104 571.269714,561.934814 
	C565.999390,545.714417 557.943481,530.349121 550.068726,515.095093 
	C549.550354,514.091003 548.703491,513.256470 547.092651,511.136414 
	C538.876587,527.679993 533.221985,544.369446 526.279114,560.234558 
	C528.044128,562.895325 530.329651,562.565796 532.430969,562.581360 
	C540.096313,562.638123 547.762268,562.650208 555.427795,562.624268 
	C557.742310,562.616394 559.662781,562.870117 560.438110,565.603271 
	C564.433899,579.688477 568.520996,593.747742 572.553894,607.822510 
	C572.683289,608.274109 572.570312,608.795044 572.570312,609.253418 
	C570.792358,610.920105 568.697021,610.294617 566.796936,610.262451 
	C551.640015,610.005615 536.481812,609.751526 521.330627,609.281128 
	C517.785217,609.171021 515.970642,610.343201 514.622498,613.679504 
	C508.009125,630.046570 501.088226,646.289124 494.414673,662.632263 
	C493.128082,665.783203 491.582428,667.483154 487.817596,667.163269 
	C473.889496,665.979919 459.936340,665.093933 445.998474,664.019836 
	C444.053131,663.869812 442.005585,663.785583 440.326965,662.578735 
	C439.475616,660.593079 440.526367,658.910461 441.054688,657.228455 
	C461.854095,591.011414 482.730011,524.818481 503.425018,458.568939 
	C504.798981,454.170502 506.721527,452.533875 511.431824,452.588470 
	C532.926514,452.837555 554.426392,452.785065 575.922668,452.618256 
	C579.821228,452.588013 581.893433,453.702942 583.331116,457.500885 
	C607.322266,520.878418 631.447083,584.205322 655.549805,647.540588 
	C656.970947,651.275085 658.457153,654.984802 660.054443,659.069336 
z"/>
<path fill="#000000" opacity="1.000000" stroke="none" 
	d="
M84.265572,623.737061 
	C90.357544,630.080505 96.195412,636.178467 102.033272,642.276367 
	C101.810333,642.722534 101.587395,643.168640 101.364449,643.614807 
	C91.428825,641.761902 80.120651,645.583374 72.447441,634.552002 
	C68.671265,629.123169 63.431007,624.736267 59.279797,619.537292 
	C55.964108,615.384766 52.437923,612.523743 46.766685,612.893433 
	C43.980148,613.074951 41.143925,612.418884 38.325577,612.201721 
	C29.679752,611.535583 29.687471,611.548218 28.254778,620.445435 
	C27.647003,624.219788 26.993093,627.986755 26.365311,631.757874 
	C26.310692,632.085938 26.376616,632.456543 26.248697,632.746582 
	C23.104683,639.874695 17.591471,633.843323 13.290821,634.930176 
	C10.269288,635.693787 9.061228,633.442017 9.621650,630.227417 
	C12.476184,613.853577 15.175166,597.452576 17.982927,581.070435 
	C22.195082,556.494141 26.566675,531.944214 30.583918,507.336273 
	C31.296476,502.971405 33.031139,501.892334 37.164768,502.186859 
	C44.133335,502.683411 51.143032,502.583862 58.133205,502.805267 
	C60.975185,502.895233 62.308655,501.731842 62.706314,498.821075 
	C64.213547,487.788452 65.869919,476.775421 67.564369,465.769501 
	C68.168129,461.847961 67.169449,459.874695 62.708500,459.948425 
	C56.390427,460.052948 50.062382,459.436554 43.740513,459.471863 
	C39.667946,459.494568 38.138676,458.144226 39.540451,454.125427 
	C39.753464,453.514709 39.719505,452.806702 39.740112,452.141815 
	C39.893784,447.183380 42.209736,445.502808 47.336666,445.579041 
	C68.659096,445.895996 89.989349,445.871094 111.314308,445.688293 
	C115.974258,445.648346 118.347702,446.673401 117.342041,451.768036 
	C117.087051,453.059784 117.193687,454.425049 117.156609,455.757172 
	C117.066223,459.004333 115.628563,460.475861 112.166016,460.371490 
	C104.840706,460.150604 97.503036,460.356323 90.175972,460.169617 
	C86.964317,460.087738 85.429298,460.937347 85.031265,464.482117 
	C83.714081,476.212738 82.070915,487.907928 80.451607,499.602722 
	C80.008865,502.800201 81.389908,503.664429 84.330933,503.733795 
	C92.153893,503.918274 99.969521,504.417847 107.792526,504.593292 
	C110.841301,504.661682 111.694008,505.688568 111.522202,508.811340 
	C110.923531,519.692993 111.058441,519.735229 100.642288,519.386475 
	C83.665070,518.818054 66.687141,518.256653 49.715687,517.544983 
	C46.901058,517.426941 45.879742,518.553223 45.382172,521.081787 
	C43.212948,532.105652 43.492764,532.313110 54.900974,532.689392 
	C70.875710,533.216125 86.839630,534.064270 102.812042,534.673462 
	C105.964752,534.793701 107.270889,535.743286 106.832481,539.208008 
	C105.601212,548.938843 105.750420,548.604736 95.877449,547.918274 
	C79.605438,546.786804 63.294678,546.223206 47.008881,545.272400 
	C43.114536,545.045044 41.105984,546.165649 40.950397,550.371277 
	C40.835743,553.470703 40.030125,556.544556 39.434204,560.238342 
	C44.727295,560.729187 49.614014,561.333679 54.519199,561.608948 
	C69.311707,562.439026 84.112022,563.129028 98.908028,563.898071 
	C105.968048,564.265015 105.976021,564.325134 105.397873,571.437012 
	C104.697037,580.057922 106.039238,588.715698 104.495407,597.356995 
	C102.186996,610.277771 96.673370,615.245972 83.621208,615.321594 
	C81.637596,615.333130 79.653862,615.323181 76.276131,615.323181 
	C79.375107,618.595642 81.693291,621.043579 84.265572,623.737061 
M82.708847,580.466125 
	C79.389267,580.216370 76.070198,579.959656 72.750023,579.718018 
	C61.794243,578.920471 50.839039,578.114563 39.881332,577.344238 
	C37.274796,577.160950 34.820919,577.192139 34.365784,580.750732 
	C33.817684,585.036194 33.072861,589.297485 32.364796,593.561218 
	C31.843683,596.699158 33.170654,598.318909 36.290180,598.545166 
	C39.942867,598.810120 43.598656,599.033997 47.249760,599.318604 
	C57.868443,600.146362 68.483078,601.027649 79.104683,601.815430 
	C81.981316,602.028870 85.222832,602.061401 86.442284,598.885986 
	C88.168571,594.390808 89.096397,589.651306 88.043396,584.748657 
	C87.505760,582.245544 85.696999,581.270203 82.708847,580.466125 
z"/>
<path fill="#000000" opacity="1.000000" stroke="none" 
	d="
M764.201782,387.058838 
	C764.045532,388.106415 764.030640,388.816772 763.745117,389.393097 
	C761.539246,393.846008 761.576416,397.274506 764.762817,402.074829 
	C771.674927,412.487671 762.750916,428.530182 750.163086,429.212524 
	C740.379089,429.742859 730.547424,429.364136 720.737854,429.472839 
	C717.893311,429.504333 716.943848,428.104126 716.950012,425.484467 
	C716.993286,407.193298 717.021545,388.902008 716.993164,370.610840 
	C716.988281,367.463593 718.381958,366.060089 721.494385,366.077698 
	C728.809998,366.119110 736.126343,366.055176 743.441589,366.122314 
	C744.748535,366.134277 746.477417,366.119080 747.288940,366.883514 
	C753.632629,372.859131 760.420471,378.494873 764.201782,387.058838 
M738.146729,414.086609 
	C740.628662,414.043640 743.121460,414.129395 745.589478,413.921326 
	C748.028748,413.715698 749.565063,412.321350 749.637207,409.742615 
	C749.716309,406.914337 748.127991,405.390137 745.446289,405.205627 
	C742.644592,405.012909 739.820984,405.163544 737.009094,405.086395 
	C733.684265,404.995117 733.439514,407.108917 733.360107,409.682770 
	C733.270813,412.577759 733.662842,414.722412 738.146729,414.086609 
M733.416870,386.431458 
	C733.447815,393.280426 738.686279,390.138580 741.789795,390.554382 
	C744.771667,390.953888 746.918762,389.306427 746.834106,385.937164 
	C746.745789,382.426117 744.086548,381.433228 741.365784,381.589386 
	C738.306458,381.764954 733.405762,379.141449 733.416870,386.431458 
z"/>
<path fill="#000000" opacity="1.000000" stroke="none" 
	d="
M493.005981,367.700867 
	C501.624084,371.074188 507.257233,376.762054 509.818024,385.359161 
	C510.785004,388.605408 510.232300,390.573883 506.281128,390.359161 
	C503.791260,390.223785 501.276825,390.175354 498.794373,390.364136 
	C495.806946,390.591278 494.040222,389.407959 492.286957,386.920837 
	C486.140381,378.201691 472.411469,379.622314 468.050079,389.366608 
	C465.151764,395.841980 465.193878,402.337463 469.441071,408.322662 
	C475.507629,416.871765 487.258392,416.657196 492.808350,407.802704 
	C494.240021,405.518555 495.756256,404.452637 498.381866,404.625366 
	C502.320007,404.884460 506.320618,404.163727 510.174927,405.154755 
	C510.921295,413.261963 505.073486,422.359894 496.510468,426.689392 
	C483.289642,433.373871 466.009399,430.499573 456.476196,420.030334 
	C447.000305,409.624054 445.742310,391.943787 453.592834,379.506989 
	C461.099609,367.614685 477.473175,362.617462 493.005981,367.700867 
z"/>
<path fill="#000000" opacity="1.000000" stroke="none" 
	d="
M641.354980,406.469940 
	C642.420471,412.824829 645.401062,415.179321 651.309998,414.768158 
	C656.576843,414.401672 658.989380,411.715027 659.032043,405.805298 
	C659.113708,394.486267 659.214844,383.164154 659.026001,371.848053 
	C658.954285,367.549133 660.454773,365.992462 664.802002,365.954620 
	C675.985291,365.857208 675.980591,365.692139 675.978882,376.872345 
	C675.977417,386.693726 676.091003,396.516510 675.962708,406.336151 
	C675.766541,421.351318 665.934387,430.423187 650.149353,430.349579 
	C635.033691,430.279144 625.066528,420.734802 624.943726,406.022766 
	C624.849182,394.704102 625.071716,383.382141 624.910889,372.065094 
	C624.852417,367.946381 626.025635,365.973053 630.516052,365.983185 
	C643.911804,366.013428 641.149048,365.855804 641.314026,376.567505 
	C641.465271,386.386627 641.348267,396.209900 641.354980,406.469940 
z"/>
<path fill="#000000" opacity="1.000000" stroke="none" 
	d="
M548.927734,382.007080 
	C548.930176,378.510132 548.931885,375.511688 548.934937,372.513275 
	C548.935425,372.013580 548.922974,371.512939 548.947693,371.014313 
	C549.195557,366.019409 549.499634,365.918976 560.012634,365.987366 
	C563.578796,366.010590 566.512695,365.973175 566.391235,371.124908 
	C566.096863,383.611359 566.444031,396.112091 566.216919,408.601349 
	C566.140076,412.825134 567.680542,414.222809 571.722961,414.009277 
	C576.041138,413.781158 580.382141,414.012268 584.712708,413.980255 
	C587.588318,413.958984 588.816589,415.260162 589.049805,418.179321 
	C589.915649,429.018433 589.620300,429.422089 578.845459,429.422302 
	C570.683105,429.422485 562.515625,429.242096 554.360413,429.481384 
	C550.201416,429.603394 548.807617,428.064972 548.856323,423.983032 
	C549.021179,410.158905 548.924316,396.331635 548.927734,382.007080 
z"/>
</svg>